<?xml version='1.0' encoding='UTF-8' standalone='no'?>
<svg xmlns:cc="http://creativecommons.org/ns#" xmlns:xlink="http://www.w3.org/1999/xlink" height="199.983mm" width="199.983mm" viewBox="0 0 2362 2362" version="1.2" xmlns="http://www.w3.org/2000/svg" baseProfile="tiny">
 <defs/>
 <g stroke-linejoin="bevel" stroke-width="1" stroke="black" fill="none" fill-rule="evenodd" stroke-linecap="square">
  <g transform="matrix(1,0,0,1,0,0)" font-size="41.6667" font-family="Ubuntu" stroke-linejoin="bevel" stroke-width="1" stroke="#000000" font-style="normal" stroke-opacity="1" font-weight="400" fill="none" stroke-linecap="square"/>
  <g transform="matrix(1,0,0,1,0,0)" font-size="41.6667" font-family="Ubuntu" stroke-linejoin="bevel" stroke-width="1" stroke="#000000" font-style="normal" stroke-opacity="1" font-weight="400" fill="none" stroke-linecap="square"/>
  <g transform="matrix(11.81,0,0,11.81,0,0)" font-size="41.6667" font-family="Ubuntu" stroke-linejoin="bevel" stroke-width="1" stroke="#000000" font-style="normal" stroke-opacity="1" font-weight="400" fill="none" stroke-linecap="square"/>
  <g transform="matrix(0.999913,0,0,0.999913,0,0)" font-size="41.6667" font-family="Ubuntu" stroke-linejoin="bevel" stroke-width="1" stroke="#000000" font-style="normal" stroke-opacity="1" font-weight="400" fill="none" stroke-linecap="square"/>
  <g transform="matrix(0.999913,0,0,0.999913,0,0)" font-size="41.6667" font-family="Ubuntu" fill-opacity="1" stroke="none" font-style="normal" font-weight="400" fill="none">
   <path d="M-2,-2 L2365,-2 L2365,2365 L-2,2365 L-2,-2" vector-effect="none" fill-rule="evenodd"/>
  </g>
  <g transform="matrix(0.999913,0,0,0.999913,0,0)" font-size="41.6667" font-family="Ubuntu" stroke-linejoin="bevel" stroke-width="1" stroke="#000000" font-style="normal" stroke-opacity="1" font-weight="400" fill="none" stroke-linecap="square"/>
  <g transform="matrix(11.81,0,0,11.81,0,0)" font-size="41.6667" font-family="Ubuntu" stroke-linejoin="bevel" stroke-width="1" stroke="#000000" font-style="normal" stroke-opacity="1" font-weight="400" fill="none" stroke-linecap="square"/>
  <g transform="matrix(11.81,0,0,11.81,0,0)" font-size="41.6667" font-family="Ubuntu" stroke-linejoin="bevel" stroke-width="1" stroke="#000000" font-style="normal" stroke-opacity="1" font-weight="400" fill="none" stroke-linecap="square"/>
  <g transform="matrix(11.81,0,0,11.81,0,0)" font-size="41.6667" font-family="Ubuntu" stroke-linejoin="bevel" stroke-width="1" stroke="#000000" font-style="normal" stroke-opacity="1" font-weight="400" fill="none" stroke-linecap="square"/>
  <g transform="matrix(11.81,0,0,11.81,0,0)" font-size="41.6667" font-family="Ubuntu" stroke-linejoin="bevel" stroke-width="1" stroke="#000000" font-style="normal" stroke-opacity="1" font-weight="400" fill="none" stroke-linecap="square"/>
  <g transform="matrix(11.81,0,0,11.81,1.35187e-15,0)" font-size="41.6667" font-family="Ubuntu" stroke-linejoin="bevel" stroke-width="1" stroke="#000000" font-style="normal" stroke-opacity="1" font-weight="400" fill="none" stroke-linecap="square"/>
  <g transform="matrix(11.81,0,0,11.81,1.35187e-15,0)" font-size="41.6667" font-family="Ubuntu" fill-opacity="1" stroke="none" font-style="normal" font-weight="400" fill="none">
   <path d="M0,0 L200,0 L200,200 L0,200 L0,0" vector-effect="none" fill-rule="evenodd"/>
  </g>
  <g transform="matrix(11.81,0,0,11.81,1.35187e-15,0)" font-size="41.6667" font-family="Ubuntu" stroke-linejoin="bevel" stroke-width="1" stroke="#000000" font-style="normal" stroke-opacity="1" font-weight="400" fill="none" stroke-linecap="square"/>
  <g transform="matrix(11.81,0,0,11.81,1.35187e-15,0)" font-size="41.6667" font-family="Ubuntu" stroke-linejoin="bevel" stroke-width="1" stroke="#000000" font-style="normal" stroke-opacity="1" font-weight="400" fill="none" stroke-linecap="square"/>
  <g transform="matrix(0.999913,0,0,0.999913,1.35187e-15,0)" font-size="41.6667" font-family="Ubuntu" fill-opacity="0" stroke="none" font-style="normal" font-weight="400" fill="#000000">
   <rect x="0" height="2362" width="2362" y="0"/>
  </g>
  <g transform="matrix(0.999913,0,0,0.999913,1.35187e-15,0)" font-size="41.6667" font-family="Ubuntu" stroke-linejoin="bevel" stroke-width="1" stroke="#000000" font-style="normal" stroke-opacity="1" font-weight="400" fill="none" stroke-linecap="square"/>
  <g transform="matrix(0.999913,0,0,0.999913,1.35187e-15,0)" font-size="41.6667" font-family="Ubuntu" stroke-dashoffset="0" stroke-linejoin="bevel" stroke-width="5.90551" stroke="#232323" stroke-dasharray="5.90551,11.811" font-style="normal" stroke-opacity="1" font-weight="400" fill="none" stroke-linecap="square">
   <path d="M919.689,464.816 L923.745,882.231 L1612.16,875.549 L1608.1,458.134 L919.689,464.816" vector-effect="none" fill-rule="evenodd"/>
   <path d="M100.403,472.768 L104.452,890.182 L916.496,882.3 L912.447,464.885 L100.403,472.768" vector-effect="none" fill-rule="evenodd"/>
   <path d="M133.22,897.147 L133.431,918.583 L107.395,918.83 L107.142,892.743 L104.478,892.773 L108.783,1336.26 L111.389,1336.23 L111.141,1310.2 L137.223,1309.89 L137.476,1335.98 L528.788,1332.18 L528.534,1306.15 L554.623,1305.84 L554.876,1331.92 L781.691,1329.73 L777.436,890.895 L550.619,893.103 L550.824,914.531 L524.737,914.784 L524.533,893.349 L133.22,897.147" vector-effect="none" fill-rule="evenodd"/>
   <path d="M1615.35,458.066 L1619.4,875.48 L2222.75,869.624 L2218.69,452.208 L1615.35,458.066" vector-effect="none" fill-rule="evenodd"/>
  </g>
  <g transform="matrix(0.999913,0,0,0.999913,1.35187e-15,0)" font-size="41.6667" font-family="Ubuntu" stroke-linejoin="bevel" stroke-width="10.6299" stroke="#232323" font-style="normal" stroke-opacity="1" font-weight="400" fill="none" stroke-linecap="square">
   <path d="M1686,296.882 L1686.59,160.497 L1465.42,164.99 L1471.01,455.168 L98.9594,461.437 L102.774,1074.02 L102.801,1078.08 L104.461,1344.65 L104.491,1349.44 L111.256,1770.49 L585.017,1773.78 L789.526,1763.91 L788.036,1879.3 L576.44,1881.35 L578.037,2045.99 L862.389,2043.24 L859.09,1763.24 L1660.25,1756.91 L1838.28,1756.08 L2228.17,1754.25 L2223.76,450.423 L1688.49,453.282 L1686,296.882" vector-effect="none" fill-rule="evenodd"/>
  </g>
  <g transform="matrix(0.999913,0,0,0.999913,1.35187e-15,0)" font-size="41.6667" font-family="Ubuntu" stroke-linejoin="bevel" stroke-width="1" stroke="#000000" font-style="normal" stroke-opacity="1" font-weight="400" fill="none" stroke-linecap="square"/>
  <g transform="matrix(0.999913,0,0,0.999913,1.35187e-15,0)" font-size="41.6667" font-family="Ubuntu" stroke-linejoin="bevel" stroke-width="1" stroke="#000000" font-style="normal" stroke-opacity="1" font-weight="400" fill="none" stroke-linecap="square"/>
  <g transform="matrix(0.999913,0,0,0.999913,1189.09,701.372)" font-size="41.6667" font-family="Ubuntu" fill-opacity="1" stroke="none" font-style="normal" font-weight="400" fill="#323232">
   <path d="M54.0938,0 L47.9375,0 L37.1406,-35.8594 C36.6198,-37.4427 36.0417,-39.4427 35.4063,-41.8594 C34.7708,-44.276 34.4427,-45.7292 34.4219,-46.2188 C33.8906,-42.9896 33.0365,-39.4583 31.8594,-35.625 L21.3906,0 L15.2344,0 L0.984375,-53.5469 L7.57813,-53.5469 L16.0469,-20.4688 C17.2135,-15.8333 18.0677,-11.6354 18.6094,-7.875 C19.2656,-12.3438 20.2396,-16.7135 21.5313,-20.9844 L31.125,-53.5469 L37.7188,-53.5469 L47.7969,-20.6875 C48.9635,-16.9063 49.9479,-12.6354 50.75,-7.875 C51.2188,-11.3438 52.099,-15.5677 53.3906,-20.5469 L61.8125,-53.5469 L68.4063,-53.5469 L54.0938,0 M107,-14.25 C107,-9.53125 105.289,-5.85417 101.867,-3.21875 C98.4453,-0.583333 93.8073,0.734375 87.9531,0.734375 C81.6094,0.734375 76.724,-0.0833333 73.2969,-1.71875 L73.2969,-7.73438 C75.4948,-6.79688 77.888,-6.0599 80.4766,-5.52344 C83.0651,-4.98698 85.6302,-4.71875 88.1719,-4.71875 C92.3177,-4.71875 95.4427,-5.50781 97.5469,-7.08594 C99.651,-8.66406 100.703,-10.8542 100.703,-13.6563 C100.703,-15.5104 100.331,-17.0313 99.5859,-18.2188 C98.8411,-19.4063 97.5938,-20.5 95.8438,-21.5 C94.0938,-22.5 91.4375,-23.6354 87.875,-24.9063 C82.8958,-26.6875 79.3385,-28.7995 77.2031,-31.2422 C75.0677,-33.6849 74,-36.8698 74,-40.7969 C74,-44.9219 75.5495,-48.2057 78.6484,-50.6484 C81.7474,-53.0911 85.849,-54.3125 90.9531,-54.3125 C96.276,-54.3125 101.172,-53.3333 105.641,-51.375 L103.703,-45.9531 C99.2865,-47.8177 94.9896,-48.75 90.8125,-48.75 C87.5104,-48.75 84.9323,-48.0417 83.0781,-46.625 C81.224,-45.2083 80.2969,-43.2396 80.2969,-40.7188 C80.2969,-38.8646 80.638,-37.3464 81.3203,-36.1641 C82.0026,-34.9818 83.1563,-33.8958 84.7813,-32.9063 C86.4063,-31.9167 88.8906,-30.8229 92.2344,-29.625 C97.849,-27.625 101.714,-25.4766 103.828,-23.1797 C105.943,-20.8828 107,-17.9063 107,-14.25 M136.766,0 L130.828,0 L130.828,-38.1563 C130.828,-41.3333 130.927,-44.3385 131.125,-47.1719 C130.615,-46.6615 130.042,-46.125 129.406,-45.5625 C128.771,-45 125.865,-42.6198 120.688,-38.4219 L117.469,-42.5938 L131.641,-53.5469 L136.766,-53.5469 L136.766,0" vector-effect="none" fill-rule="nonzero"/>
  </g>
  <g transform="matrix(0.999913,0,0,0.999913,1.35187e-15,0)" font-size="41.6667" font-family="Ubuntu" stroke-linejoin="bevel" stroke-width="1" stroke="#000000" font-style="normal" stroke-opacity="1" font-weight="400" fill="none" stroke-linecap="square"/>
  <g transform="matrix(0.999913,0,0,0.999913,431.685,708.722)" font-size="41.6667" font-family="Ubuntu" fill-opacity="1" stroke="none" font-style="normal" font-weight="400" fill="#323232">
   <path d="M54.0938,0 L47.9375,0 L37.1406,-35.8594 C36.6198,-37.4427 36.0417,-39.4427 35.4063,-41.8594 C34.7708,-44.276 34.4427,-45.7292 34.4219,-46.2188 C33.8906,-42.9896 33.0365,-39.4583 31.8594,-35.625 L21.3906,0 L15.2344,0 L0.984375,-53.5469 L7.57813,-53.5469 L16.0469,-20.4688 C17.2135,-15.8333 18.0677,-11.6354 18.6094,-7.875 C19.2656,-12.3438 20.2396,-16.7135 21.5313,-20.9844 L31.125,-53.5469 L37.7188,-53.5469 L47.7969,-20.6875 C48.9635,-16.9063 49.9479,-12.6354 50.75,-7.875 C51.2188,-11.3438 52.099,-15.5677 53.3906,-20.5469 L61.8125,-53.5469 L68.4063,-53.5469 L54.0938,0 M107,-14.25 C107,-9.53125 105.289,-5.85417 101.867,-3.21875 C98.4453,-0.583333 93.8073,0.734375 87.9531,0.734375 C81.6094,0.734375 76.724,-0.0833333 73.2969,-1.71875 L73.2969,-7.73438 C75.4948,-6.79688 77.888,-6.0599 80.4766,-5.52344 C83.0651,-4.98698 85.6302,-4.71875 88.1719,-4.71875 C92.3177,-4.71875 95.4427,-5.50781 97.5469,-7.08594 C99.651,-8.66406 100.703,-10.8542 100.703,-13.6563 C100.703,-15.5104 100.331,-17.0313 99.5859,-18.2188 C98.8411,-19.4063 97.5938,-20.5 95.8438,-21.5 C94.0938,-22.5 91.4375,-23.6354 87.875,-24.9063 C82.8958,-26.6875 79.3385,-28.7995 77.2031,-31.2422 C75.0677,-33.6849 74,-36.8698 74,-40.7969 C74,-44.9219 75.5495,-48.2057 78.6484,-50.6484 C81.7474,-53.0911 85.849,-54.3125 90.9531,-54.3125 C96.276,-54.3125 101.172,-53.3333 105.641,-51.375 L103.703,-45.9531 C99.2865,-47.8177 94.9896,-48.75 90.8125,-48.75 C87.5104,-48.75 84.9323,-48.0417 83.0781,-46.625 C81.224,-45.2083 80.2969,-43.2396 80.2969,-40.7188 C80.2969,-38.8646 80.638,-37.3464 81.3203,-36.1641 C82.0026,-34.9818 83.1563,-33.8958 84.7813,-32.9063 C86.4063,-31.9167 88.8906,-30.8229 92.2344,-29.625 C97.849,-27.625 101.714,-25.4766 103.828,-23.1797 C105.943,-20.8828 107,-17.9063 107,-14.25 M149.438,0 L114.234,0 L114.234,-5.23438 L128.344,-19.4063 C132.635,-23.75 135.466,-26.8516 136.836,-28.7109 C138.206,-30.5703 139.232,-32.3776 139.914,-34.1328 C140.596,-35.888 140.938,-37.7813 140.938,-39.8125 C140.938,-42.6667 140.07,-44.9297 138.336,-46.6016 C136.602,-48.2734 134.198,-49.1094 131.125,-49.1094 C128.906,-49.1094 126.802,-48.7422 124.813,-48.0078 C122.823,-47.2734 120.604,-45.9427 118.156,-44.0156 L114.938,-48.1563 C119.865,-52.2604 125.234,-54.3125 131.047,-54.3125 C136.078,-54.3125 140.021,-53.0234 142.875,-50.4453 C145.729,-47.8672 147.156,-44.4063 147.156,-40.0625 C147.156,-36.6667 146.206,-33.3099 144.305,-29.9922 C142.404,-26.6745 138.839,-22.474 133.609,-17.3906 L121.891,-5.9375 L121.891,-5.64063 L149.438,-5.64063 L149.438,0" vector-effect="none" fill-rule="nonzero"/>
  </g>
  <g transform="matrix(0.999913,0,0,0.999913,1.35187e-15,0)" font-size="41.6667" font-family="Ubuntu" stroke-linejoin="bevel" stroke-width="1" stroke="#000000" font-style="normal" stroke-opacity="1" font-weight="400" fill="none" stroke-linecap="square"/>
  <g transform="matrix(0.999913,0,0,0.999913,367.281,1144.55)" font-size="41.6667" font-family="Ubuntu" fill-opacity="1" stroke="none" font-style="normal" font-weight="400" fill="#323232">
   <path d="M54.0938,0 L47.9375,0 L37.1406,-35.8594 C36.6198,-37.4427 36.0417,-39.4427 35.4063,-41.8594 C34.7708,-44.276 34.4427,-45.7292 34.4219,-46.2188 C33.8906,-42.9896 33.0365,-39.4583 31.8594,-35.625 L21.3906,0 L15.2344,0 L0.984375,-53.5469 L7.57813,-53.5469 L16.0469,-20.4688 C17.2135,-15.8333 18.0677,-11.6354 18.6094,-7.875 C19.2656,-12.3438 20.2396,-16.7135 21.5313,-20.9844 L31.125,-53.5469 L37.7188,-53.5469 L47.7969,-20.6875 C48.9635,-16.9063 49.9479,-12.6354 50.75,-7.875 C51.2188,-11.3438 52.099,-15.5677 53.3906,-20.5469 L61.8125,-53.5469 L68.4063,-53.5469 L54.0938,0 M107,-14.25 C107,-9.53125 105.289,-5.85417 101.867,-3.21875 C98.4453,-0.583333 93.8073,0.734375 87.9531,0.734375 C81.6094,0.734375 76.724,-0.0833333 73.2969,-1.71875 L73.2969,-7.73438 C75.4948,-6.79688 77.888,-6.0599 80.4766,-5.52344 C83.0651,-4.98698 85.6302,-4.71875 88.1719,-4.71875 C92.3177,-4.71875 95.4427,-5.50781 97.5469,-7.08594 C99.651,-8.66406 100.703,-10.8542 100.703,-13.6563 C100.703,-15.5104 100.331,-17.0313 99.5859,-18.2188 C98.8411,-19.4063 97.5938,-20.5 95.8438,-21.5 C94.0938,-22.5 91.4375,-23.6354 87.875,-24.9063 C82.8958,-26.6875 79.3385,-28.7995 77.2031,-31.2422 C75.0677,-33.6849 74,-36.8698 74,-40.7969 C74,-44.9219 75.5495,-48.2057 78.6484,-50.6484 C81.7474,-53.0911 85.849,-54.3125 90.9531,-54.3125 C96.276,-54.3125 101.172,-53.3333 105.641,-51.375 L103.703,-45.9531 C99.2865,-47.8177 94.9896,-48.75 90.8125,-48.75 C87.5104,-48.75 84.9323,-48.0417 83.0781,-46.625 C81.224,-45.2083 80.2969,-43.2396 80.2969,-40.7188 C80.2969,-38.8646 80.638,-37.3464 81.3203,-36.1641 C82.0026,-34.9818 83.1563,-33.8958 84.7813,-32.9063 C86.4063,-31.9167 88.8906,-30.8229 92.2344,-29.625 C97.849,-27.625 101.714,-25.4766 103.828,-23.1797 C105.943,-20.8828 107,-17.9063 107,-14.25 M147.422,-40.9375 C147.422,-37.5208 146.464,-34.7266 144.547,-32.5547 C142.63,-30.3828 139.911,-28.9323 136.391,-28.2031 L136.391,-27.9063 C140.693,-27.3646 143.88,-25.9974 145.953,-23.8047 C148.026,-21.612 149.063,-18.7292 149.063,-15.1563 C149.063,-10.0521 147.294,-6.1276 143.758,-3.38281 C140.221,-0.638021 135.193,0.734375 128.672,0.734375 C125.839,0.734375 123.245,0.520833 120.891,0.09375 C118.536,-0.333333 116.245,-1.08333 114.016,-2.15625 L114.016,-7.95313 C116.339,-6.79688 118.813,-5.92188 121.438,-5.32813 C124.063,-4.73438 126.547,-4.4375 128.891,-4.4375 C138.141,-4.4375 142.766,-8.0625 142.766,-15.3125 C142.766,-21.8021 137.661,-25.0469 127.453,-25.0469 L122.188,-25.0469 L122.188,-30.2813 L127.531,-30.2813 C131.708,-30.2813 135.018,-31.2031 137.461,-33.0469 C139.904,-34.8906 141.125,-37.4479 141.125,-40.7188 C141.125,-43.3333 140.227,-45.3854 138.43,-46.875 C136.633,-48.3646 134.198,-49.1094 131.125,-49.1094 C128.781,-49.1094 126.57,-48.7917 124.492,-48.1563 C122.414,-47.5208 120.047,-46.349 117.391,-44.6406 L114.313,-48.75 C116.51,-50.4792 119.044,-51.8385 121.914,-52.8281 C124.784,-53.8177 127.802,-54.3125 130.969,-54.3125 C136.177,-54.3125 140.221,-53.1224 143.102,-50.7422 C145.982,-48.362 147.422,-45.0938 147.422,-40.9375 " vector-effect="none" fill-rule="nonzero"/>
  </g>
  <g transform="matrix(0.999913,0,0,0.999913,1.35187e-15,0)" font-size="41.6667" font-family="Ubuntu" stroke-linejoin="bevel" stroke-width="1" stroke="#000000" font-style="normal" stroke-opacity="1" font-weight="400" fill="none" stroke-linecap="square"/>
  <g transform="matrix(0.999913,0,0,0.999913,1842.16,695.035)" font-size="41.6667" font-family="Ubuntu" fill-opacity="1" stroke="none" font-style="normal" font-weight="400" fill="#323232">
   <path d="M54.0938,0 L47.9375,0 L37.1406,-35.8594 C36.6198,-37.4427 36.0417,-39.4427 35.4063,-41.8594 C34.7708,-44.276 34.4427,-45.7292 34.4219,-46.2188 C33.8906,-42.9896 33.0365,-39.4583 31.8594,-35.625 L21.3906,0 L15.2344,0 L0.984375,-53.5469 L7.57813,-53.5469 L16.0469,-20.4688 C17.2135,-15.8333 18.0677,-11.6354 18.6094,-7.875 C19.2656,-12.3438 20.2396,-16.7135 21.5313,-20.9844 L31.125,-53.5469 L37.7188,-53.5469 L47.7969,-20.6875 C48.9635,-16.9063 49.9479,-12.6354 50.75,-7.875 C51.2188,-11.3438 52.099,-15.5677 53.3906,-20.5469 L61.8125,-53.5469 L68.4063,-53.5469 L54.0938,0 M107,-14.25 C107,-9.53125 105.289,-5.85417 101.867,-3.21875 C98.4453,-0.583333 93.8073,0.734375 87.9531,0.734375 C81.6094,0.734375 76.724,-0.0833333 73.2969,-1.71875 L73.2969,-7.73438 C75.4948,-6.79688 77.888,-6.0599 80.4766,-5.52344 C83.0651,-4.98698 85.6302,-4.71875 88.1719,-4.71875 C92.3177,-4.71875 95.4427,-5.50781 97.5469,-7.08594 C99.651,-8.66406 100.703,-10.8542 100.703,-13.6563 C100.703,-15.5104 100.331,-17.0313 99.5859,-18.2188 C98.8411,-19.4063 97.5938,-20.5 95.8438,-21.5 C94.0938,-22.5 91.4375,-23.6354 87.875,-24.9063 C82.8958,-26.6875 79.3385,-28.7995 77.2031,-31.2422 C75.0677,-33.6849 74,-36.8698 74,-40.7969 C74,-44.9219 75.5495,-48.2057 78.6484,-50.6484 C81.7474,-53.0911 85.849,-54.3125 90.9531,-54.3125 C96.276,-54.3125 101.172,-53.3333 105.641,-51.375 L103.703,-45.9531 C99.2865,-47.8177 94.9896,-48.75 90.8125,-48.75 C87.5104,-48.75 84.9323,-48.0417 83.0781,-46.625 C81.224,-45.2083 80.2969,-43.2396 80.2969,-40.7188 C80.2969,-38.8646 80.638,-37.3464 81.3203,-36.1641 C82.0026,-34.9818 83.1563,-33.8958 84.7813,-32.9063 C86.4063,-31.9167 88.8906,-30.8229 92.2344,-29.625 C97.849,-27.625 101.714,-25.4766 103.828,-23.1797 C105.943,-20.8828 107,-17.9063 107,-14.25 M151.953,-12.3125 L144.016,-12.3125 L144.016,0 L138.188,0 L138.188,-12.3125 L112.156,-12.3125 L112.156,-17.6094 L137.563,-53.8281 L144.016,-53.8281 L144.016,-17.8281 L151.953,-17.8281 L151.953,-12.3125 M138.188,-17.8281 L138.188,-35.625 C138.188,-39.125 138.313,-43.0729 138.563,-47.4688 L138.266,-47.4688 C137.089,-45.125 135.99,-43.1823 134.969,-41.6406 L118.234,-17.8281 L138.188,-17.8281" vector-effect="none" fill-rule="nonzero"/>
  </g>
  <g transform="matrix(0.999913,0,0,0.999913,1.35187e-15,0)" font-size="41.6667" font-family="Ubuntu" stroke-linejoin="bevel" stroke-width="1" stroke="#000000" font-style="normal" stroke-opacity="1" font-weight="400" fill="none" stroke-linecap="square"/>
  <g transform="matrix(11.81,0,0,11.81,1.35187e-15,0)" font-size="41.6667" font-family="Ubuntu" stroke-linejoin="bevel" stroke-width="1" stroke="#000000" font-style="normal" stroke-opacity="1" font-weight="400" fill="none" stroke-linecap="square"/>
  <g transform="matrix(11.81,0,0,11.81,1.35187e-15,0)" font-size="41.6667" font-family="Ubuntu" stroke-linejoin="bevel" stroke-width="1" stroke="#000000" font-style="normal" stroke-opacity="1" font-weight="400" fill="none" stroke-linecap="square"/>
  <g transform="matrix(11.81,0,0,11.81,1.35187e-15,0)" font-size="41.6667" font-family="Ubuntu" stroke-linejoin="bevel" stroke-width="1" stroke="#000000" font-style="normal" stroke-opacity="1" font-weight="400" fill="none" stroke-linecap="square"/>
  <g transform="matrix(1,0,0,1,0,0)" font-size="41.6667" font-family="Ubuntu" stroke-linejoin="bevel" stroke-width="1" stroke="#000000" font-style="normal" stroke-opacity="1" font-weight="400" fill="none" stroke-linecap="square"/>
  <g transform="matrix(11.81,0,0,11.81,1.35187e-15,0)" font-size="41.6667" font-family="Ubuntu" stroke-linejoin="bevel" stroke-width="1" stroke="#000000" font-style="normal" stroke-opacity="1" font-weight="400" fill="none" stroke-linecap="square"/>
  <g transform="matrix(11.81,0,0,11.81,1.35187e-15,0)" font-size="41.6667" font-family="Ubuntu" stroke-linejoin="bevel" stroke-width="1" stroke="#000000" font-style="normal" stroke-opacity="1" font-weight="400" fill="none" stroke-linecap="square"/>
  <g transform="matrix(11.81,0,0,11.81,0,0)" font-size="41.6667" font-family="Ubuntu" stroke-linejoin="bevel" stroke-width="1" stroke="#000000" font-style="normal" stroke-opacity="1" font-weight="400" fill="none" stroke-linecap="square"/>
  <g transform="matrix(11.81,0,0,11.81,0,0)" font-size="41.6667" font-family="Ubuntu" stroke-linejoin="bevel" stroke-width="1" stroke="#000000" font-style="normal" stroke-opacity="1" font-weight="400" fill="none" stroke-linecap="square"/>
  <g transform="matrix(1,0,0,1,0,0)" font-size="41.6667" font-family="Ubuntu" stroke-linejoin="bevel" stroke-width="1" stroke="#000000" font-style="normal" stroke-opacity="1" font-weight="400" fill="none" stroke-linecap="square"/>
 </g>
 <metadata>
  <rdf:RDF xmlns:rdfs="http://www.w3.org/2000/01/rdf-schema#" xmlns:dc="http://purl.org/dc/elements/1.1/" xmlns:rdf="http://www.w3.org/1999/02/22-rdf-syntax-ns#">
   <rdf:Description dc:identifier="" dc:description="" dc:title="" dc:date="2026-03-07T00:21:27" dc:format="image/svg+xml">
    <dc:creator>
     <rdf:Bag>
      <rdf:li>gislars</rdf:li>
     </rdf:Bag>
    </dc:creator>
    <dc:publisher>
     <rdf:Bag>
      <rdf:li>QGIS 3.40.15-Bratislava</rdf:li>
     </rdf:Bag>
    </dc:publisher>
    <dc:subject>
     <rdf:Bag/>
    </dc:subject>
   </rdf:Description>
   <cc:Work rdf:about="">
    <dc:format>image/svg+xml</dc:format>
    <dc:title></dc:title>
    <dc:date>2026-03-07T00:21:27</dc:date>
    <dc:identifier></dc:identifier>
    <dc:description></dc:description>
    <dc:creator>
     <cc:Agent>
      <dc:title>gislars</dc:title>
     </cc:Agent>
    </dc:creator>
    <dc:publisher>
     <cc:Agent>
      <dc:title>QGIS 3.40.15-Bratislava</dc:title>
     </cc:Agent>
    </dc:publisher>
   </cc:Work>
  </rdf:RDF>
 </metadata>
</svg>
