<?xml version='1.0' encoding='UTF-8' standalone='no'?>
<svg xmlns:cc="http://creativecommons.org/ns#" xmlns:xlink="http://www.w3.org/1999/xlink" height="199.983mm" width="199.983mm" viewBox="0 0 2362 2362" version="1.2" xmlns="http://www.w3.org/2000/svg" baseProfile="tiny">
 <defs/>
 <g stroke-linejoin="bevel" stroke-width="1" stroke="black" fill="none" fill-rule="evenodd" stroke-linecap="square">
  <g transform="matrix(1,0,0,1,0,0)" font-size="41.6667" font-family="Ubuntu" stroke-linejoin="bevel" stroke-width="1" stroke="#000000" font-style="normal" stroke-opacity="1" font-weight="400" fill="none" stroke-linecap="square"/>
  <g transform="matrix(1,0,0,1,0,0)" font-size="41.6667" font-family="Ubuntu" stroke-linejoin="bevel" stroke-width="1" stroke="#000000" font-style="normal" stroke-opacity="1" font-weight="400" fill="none" stroke-linecap="square"/>
  <g transform="matrix(11.81,0,0,11.81,0,0)" font-size="41.6667" font-family="Ubuntu" stroke-linejoin="bevel" stroke-width="1" stroke="#000000" font-style="normal" stroke-opacity="1" font-weight="400" fill="none" stroke-linecap="square"/>
  <g transform="matrix(0.999913,0,0,0.999913,0,0)" font-size="41.6667" font-family="Ubuntu" stroke-linejoin="bevel" stroke-width="1" stroke="#000000" font-style="normal" stroke-opacity="1" font-weight="400" fill="none" stroke-linecap="square"/>
  <g transform="matrix(0.999913,0,0,0.999913,0,0)" font-size="41.6667" font-family="Ubuntu" fill-opacity="1" stroke="none" font-style="normal" font-weight="400" fill="none">
   <path d="M-2,-2 L2365,-2 L2365,2365 L-2,2365 L-2,-2" vector-effect="none" fill-rule="evenodd"/>
  </g>
  <g transform="matrix(0.999913,0,0,0.999913,0,0)" font-size="41.6667" font-family="Ubuntu" stroke-linejoin="bevel" stroke-width="1" stroke="#000000" font-style="normal" stroke-opacity="1" font-weight="400" fill="none" stroke-linecap="square"/>
  <g transform="matrix(11.81,0,0,11.81,0,0)" font-size="41.6667" font-family="Ubuntu" stroke-linejoin="bevel" stroke-width="1" stroke="#000000" font-style="normal" stroke-opacity="1" font-weight="400" fill="none" stroke-linecap="square"/>
  <g transform="matrix(11.81,0,0,11.81,0,0)" font-size="41.6667" font-family="Ubuntu" stroke-linejoin="bevel" stroke-width="1" stroke="#000000" font-style="normal" stroke-opacity="1" font-weight="400" fill="none" stroke-linecap="square"/>
  <g transform="matrix(11.81,0,0,11.81,0,0)" font-size="41.6667" font-family="Ubuntu" stroke-linejoin="bevel" stroke-width="1" stroke="#000000" font-style="normal" stroke-opacity="1" font-weight="400" fill="none" stroke-linecap="square"/>
  <g transform="matrix(11.81,0,0,11.81,0,0)" font-size="41.6667" font-family="Ubuntu" stroke-linejoin="bevel" stroke-width="1" stroke="#000000" font-style="normal" stroke-opacity="1" font-weight="400" fill="none" stroke-linecap="square"/>
  <g transform="matrix(11.81,0,0,11.81,9.22066e-16,0)" font-size="41.6667" font-family="Ubuntu" stroke-linejoin="bevel" stroke-width="1" stroke="#000000" font-style="normal" stroke-opacity="1" font-weight="400" fill="none" stroke-linecap="square"/>
  <g transform="matrix(11.81,0,0,11.81,9.22066e-16,0)" font-size="41.6667" font-family="Ubuntu" fill-opacity="1" stroke="none" font-style="normal" font-weight="400" fill="none">
   <path d="M0,0 L200,0 L200,200 L0,200 L0,0" vector-effect="none" fill-rule="evenodd"/>
  </g>
  <g transform="matrix(11.81,0,0,11.81,9.22066e-16,0)" font-size="41.6667" font-family="Ubuntu" stroke-linejoin="bevel" stroke-width="1" stroke="#000000" font-style="normal" stroke-opacity="1" font-weight="400" fill="none" stroke-linecap="square"/>
  <g transform="matrix(11.81,0,0,11.81,9.22066e-16,0)" font-size="41.6667" font-family="Ubuntu" stroke-linejoin="bevel" stroke-width="1" stroke="#000000" font-style="normal" stroke-opacity="1" font-weight="400" fill="none" stroke-linecap="square"/>
  <g transform="matrix(0.999913,0,0,0.999913,9.22066e-16,0)" font-size="41.6667" font-family="Ubuntu" fill-opacity="0" stroke="none" font-style="normal" font-weight="400" fill="#000000">
   <rect x="0" height="2362" width="2362" y="0"/>
  </g>
  <g transform="matrix(0.999913,0,0,0.999913,9.22066e-16,0)" font-size="41.6667" font-family="Ubuntu" stroke-linejoin="bevel" stroke-width="1" stroke="#000000" font-style="normal" stroke-opacity="1" font-weight="400" fill="none" stroke-linecap="square"/>
  <g transform="matrix(0.999913,0,0,0.999913,9.22066e-16,0)" font-size="41.6667" font-family="Ubuntu" stroke-dashoffset="0" stroke-linejoin="bevel" stroke-width="5.90551" stroke="#232323" stroke-dasharray="5.90551,11.811" font-style="normal" stroke-opacity="1" font-weight="400" fill="none" stroke-linecap="square">
   <path d="M1698.29,1361.46 L1691.5,1320.41 L1685.74,1285.56 L1667.83,1285.37 L1667.55,1311.47 L1299.15,1307.56 L1299.43,1281.46 L1284.51,1281.3 L1270.14,1358.06 L1265.13,1384.84 L1259.11,1416.95 L1256.79,1429.38 L1256.44,1431.24 L1256.23,1432.34 L1242.02,1508.25 L1241.72,1509.83 L1355.22,1711.59 L1393.66,1712 L1545.77,1713.61 L1564.92,1713.81 L1567.5,1713.84 L1605.93,1714.25 L1606.22,1713.76 L1638.03,1659.91 L1723.68,1514.94 L1723.17,1511.9 L1714.96,1462.23 L1712.95,1450.12 L1710.72,1436.63 L1708.12,1420.89 L1706.15,1408.98 L1704.79,1400.77 L1704.39,1398.31 L1698.29,1361.46" vector-effect="none" fill-rule="evenodd"/>
   <path d="M1190.16,1762.91 L1113.08,1716.99 L1093.34,1705.23 L1092.85,1704.94 L1090.76,1705.31 L1060.28,1710.74 L1058.1,1711.13 L1028.3,1716.44 L1024.67,1717.08 L1008.68,1719.93 L949.241,1730.52 L949.495,1731.95 L947.141,1732.37 L946.887,1730.94 L934.251,1733.2 L934.505,1734.62 L933.439,1835.25 L945.91,1835.39 L945.212,1901.22 L932.741,1901.09 L931.461,2021.87 L948.656,2025.31 L948.372,2026.74 L981.014,2033.27 L1006.72,2038.41 L1023.02,2041.68 L1025.92,2042.25 L1088.47,2054.77 L1089.15,2054.91 L1091.25,2053.71 L1224.91,1977.52 L1237.25,1970.49 L1238.45,1856.65 L1239.14,1792.09 L1229.57,1786.38 L1190.16,1762.91" vector-effect="none" fill-rule="evenodd"/>
   <path d="M1578.72,2266.9 L1582.81,2244.35 L1583.43,2240.92 L1586.33,2224.98 L1586.98,2221.36 L1588.88,2210.92 L1589.14,2209.49 L1590.51,2201.95 L1592.31,2192 L1592.61,2190.34 L1593.87,2183.4 L1596.67,2168 L1589.58,2155.37 L1566.48,2114.26 L1525.41,2041.15 L1359.92,2039.4 L1293.55,2151.89 L1286.02,2164.64 L1293.01,2208.52 L1293.24,2209.97 L1294.68,2218.98 L1295.26,2222.62 L1297.8,2238.6 L1301.84,2263.96 L1307,2296.33 L1308.43,2296.1 L1311.06,2312.57 L1534.87,2314.94 L1568.46,2315.29 L1571.44,2298.88 L1572.87,2299.14 L1578.72,2266.9" vector-effect="none" fill-rule="evenodd"/>
   <path d="M1960.19,2270.94 L1964.28,2248.39 L1965.08,2244.02 L1967.97,2228.08 L1968.62,2224.45 L1970.25,2215.47 L1970.52,2214.02 L1971.02,2211.23 L1978.14,2172.04 L1971.17,2159.64 L1953.41,2128.03 L1906.87,2045.19 L1905.4,2045.18 L1773.86,2043.79 L1741.38,2043.44 L1675.05,2155.87 L1667.45,2168.75 L1674.07,2210.17 L1674.3,2211.62 L1675.97,2222.08 L1676.55,2225.71 L1679.1,2241.7 L1679.69,2245.38 L1683.3,2268 L1688.46,2300.37 L1689.9,2300.14 L1690.13,2301.59 L1688.7,2301.81 L1691.01,2316.28 L1692.44,2316.05 L1692.53,2316.61 L1949.93,2319.33 L1952.91,2302.93 L1954.34,2303.18 L1960.19,2270.94" vector-effect="none" fill-rule="evenodd"/>
   <path d="M2224.59,851.305 L2224.59,850.763 L2224.63,845.641 L2082.13,844.485 L2082.12,845.936 L2014.65,845.386 L2014.43,871.397 L2016.65,872.022 L2031.81,876.292 L2031.92,862.497 L2044.24,862.597 L2050.06,862.644 L2050.03,866.424 L2049.34,951.255 L2049.28,958.676 L2048.7,1029.82 L2044.54,1029.79 L2032.38,1029.69 L2030.56,1029.67 L2030.65,1019.14 L2030.66,1017.64 L2030.68,1015.02 L2013.23,1019.59 L2013.21,1022.06 L2013.01,1046.44 L2014.8,1046.45 L2044.57,1046.69 L2080.49,1046.99 L2080.48,1048.44 L2222.98,1049.59 L2224.59,851.305" vector-effect="none" fill-rule="evenodd"/>
   <path d="M2219.59,1467.51 L2220.26,1384.32 L2220.3,1379.87 L2220.4,1367.39 L2077.9,1366.23 L2077.89,1367.68 L2047.66,1367.43 L2046.69,1367.43 L2046.6,1378.69 L2046.54,1386.11 L2046.03,1447.96 L2045.28,1447.96 L2037.01,1447.89 L2028.39,1447.82 L2027.61,1447.82 L2027.67,1439.58 L2027.69,1437.67 L2027.7,1436.19 L2027.72,1434.17 L2022.65,1435.12 L2009.84,1437.51 L2009.82,1439.49 L2009.68,1457.42 L2009.62,1464.36 L2010.37,1464.36 L2028.06,1464.51 L2045.31,1464.65 L2077.1,1464.9 L2077.09,1466.36 L2219.59,1467.51" vector-effect="none" fill-rule="evenodd"/>
   <path d="M2219.38,1493.4 L2219.45,1484.5 L2219.5,1478.56 L2219.54,1473.32 L2077.04,1472.16 L2077.03,1473.61 L2045.33,1473.35 L2037.94,1473.29 L2009.55,1473.06 L2009.33,1500.42 L2009.99,1500.53 L2026.72,1503.39 L2026.84,1488.88 L2045.12,1489.03 L2045.09,1492.37 L2045.01,1502.62 L2044.81,1527.24 L2043.74,1658.66 L2025.72,1658.51 L2025.48,1658.51 L2025.55,1647.32 L2025.57,1645.85 L2025.58,1643.92 L2008.14,1647.2 L2008.12,1648.93 L2007.92,1674.04 L2008.15,1674.04 L2045.69,1674.35 L2075.4,1674.59 L2075.38,1676.04 L2217.88,1677.2 L2218.51,1599.52 L2218.57,1592.1 L2219.38,1493.4" vector-effect="none" fill-rule="evenodd"/>
   <path d="M2033.22,881.326 L2033.23,879.824 L2033.25,878.2 L2031.42,877.689 L2016.63,873.557 L2012.98,872.534 L2012.29,872.528 L2011.52,872.522 L2011.52,873.599 L2011.08,873.595 L2010.94,891.143 L2011.37,891.145 L2011.35,893.758 L2008.74,893.737 L2008.74,893.302 L2004.82,893.27 L2002.65,893.252 L2002.61,897.605 L2001.88,897.599 L1999.71,897.582 L1999.72,896.853 L1999.72,896.273 L1999.75,893.228 L1990.86,893.157 L1971.18,892.997 L1968.98,892.979 L1968.95,897.332 L1968.23,897.327 L1966.05,897.309 L1966.05,896.497 L1966.06,895.917 L1966.08,892.955 L1961.18,892.916 L1954.65,892.863 L1952.44,892.845 L1952.4,897.199 L1951.7,897.192 L1949.5,897.174 L1949.51,896.32 L1949.51,895.742 L1949.54,892.822 L1921.01,892.59 L1918.77,892.572 L1918.74,896.925 L1918.06,896.919 L1915.84,896.9 L1915.84,895.965 L1915.85,895.384 L1915.87,892.547 L1915.64,892.545 L1912.53,892.52 L1912.5,896.874 L1909.6,896.85 L1909.63,892.497 L1878.87,892.247 L1878.83,896.6 L1875.93,896.577 L1875.97,892.224 L1854.93,892.054 L1854.92,892.489 L1853.83,892.48 L1853.56,925.854 L1853.55,927.307 L1853.27,961.697 L1853.26,963.148 L1852.99,996.523 L1852.98,997.974 L1852.71,1031.35 L1852.69,1032.8 L1852.41,1067.63 L1861.63,1067.7 L1861.59,1072.78 L1857.88,1072.75 L1857.4,1132.25 L1861.1,1132.28 L1861.06,1137.36 L1851.92,1137.28 L1851.64,1172.11 L1860.78,1172.18 L1860.74,1177.26 L1857.04,1177.23 L1856.55,1236.73 L1860.25,1236.76 L1860.21,1241.84 L1851.04,1241.76 L1849.88,1379.62 L1849.16,1468.06 L1847.93,1468.05 L1847.64,1468.05 L1756.4,1467.31 L1753.57,1467.28 L1751.62,1470.6 L1751.39,1471 L1729.78,1507.78 L1726.39,1513.56 L1637.15,1665.49 L1578.35,1765.61 L1534.81,1765.26 L1534.16,1761.62 L1534.18,1759.65 L1528.87,1732.1 L1528.57,1730.38 L1431.34,1729.59 L1431.01,1731.3 L1425.33,1760.28 L1425.1,1761.46 L1425.07,1764.36 L1381.03,1764.01 L1323.04,1661.65 L1322.96,1661.65 L1307.13,1661.52 L1302.83,1661.48 L1264.26,1661.17 L1221.39,1660.82 L1221.39,1660.9 L1220.3,1660.89 L1220.41,1648.12 L1221.29,1648.12 L1221.74,1592.98 L1220.85,1592.97 L1220.98,1577.3 L1221.44,1577.31 L1221.44,1577.38 L1258.53,1577.68 L1275.81,1577.82 L1213.3,1467.61 L1212.05,1465.4 L1210.41,1462.51 L1093.56,1461.57 L1093.14,1462.35 L1092.65,1463.04 L1092.11,1463.62 L1091.53,1464.06 L1090.93,1464.36 L1090.32,1464.51 L1089.71,1464.5 L1089.13,1464.35 L1088.59,1464.04 L1088.1,1463.58 L1087.67,1463 L1087.32,1462.31 L1087.06,1461.51 L1064.31,1461.33 L1064.3,1461.55 L1064.09,1461.54 L1063.95,1477.72 L1064.32,1477.72 L1064.31,1478.45 L1076.72,1478.55 L1076.68,1483.63 L1072.98,1483.6 L1072.49,1543.1 L1076.19,1543.13 L1076.15,1548.21 L1063.75,1548.1 L1063.74,1548.83 L1063.38,1548.83 L1063.11,1582.2 L1063.47,1582.21 L1063.46,1582.93 L1075.87,1583.03 L1075.85,1585.57 L1075.83,1588.11 L1072.13,1588.1 L1071.65,1647.58 L1075.35,1647.61 L1075.3,1652.68 L1062.88,1652.58 L1062.88,1653.31 L1062.53,1653.31 L1062.29,1682.12 L1062.4,1682.18 L1068.37,1685.73 L1071.29,1687.47 L1083.88,1694.97 L1095.38,1701.8 L1117.99,1715.26 L1194.16,1760.59 L1233.59,1784.05 L1239.11,1787.34 L1253.9,1796.14 L1277.01,1809.89 L1276.97,1814.09 L1276.75,1841.32 L1273.85,1841.3 L1263.97,1843.08 L1253.81,1844.91 L1253.5,1844.97 L1252.93,1916.07 L1253.05,1916.09 L1273.04,1920.03 L1273.21,1920.07 L1276.11,1920.09 L1275.86,1951.52 L1278.05,1955.91 L1278.49,1956.98 L1279.06,1958.45 L1279.89,1960.94 L1280.63,1963.69 L1281.07,1965.8 L1281.57,1969.06 L1281.77,1971.4 L1281.83,1972.45 L1281.78,1977.13 L1281.2,1982.13 L1279.55,1988.74 L1276.13,1996.58 L1270.16,2005.05 L1265.27,2009.78 L1184.33,2080.32 L1174.24,2089.12 L1172.06,2089.98 L1168.41,2091.13 L1164.49,2092 L1159.42,2092.62 L1155.06,2092.7 L1150.73,2092.37 L1146.51,2091.65 L1142.46,2090.56 L1139.27,2089.43 L1136.32,2087.75 L1132.5,2085.53 L1128.84,2083.19 L1125.92,2080.7 L1123.16,2078.3 L1120.11,2074.56 L1117.42,2071.28 L1105.3,2049.88 L1105.05,2049.44 L1093.56,2056.04 L1090.05,2058.05 L1063.28,2073.39 L1061.5,2074.42 L1059.1,2075.79 L1058.85,2106.88 L1059.21,2106.88 L1059.2,2108.33 L1058.84,2108.33 L1058.8,2112.2 L1058.58,2140.2 L1058.94,2140.21 L1058.93,2141.66 L1058.56,2141.66 L1058.31,2173.53 L1058.67,2173.53 L1058.66,2174.98 L1058.29,2174.98 L1058.16,2191.67 L1059.32,2191.68 L1059.32,2192.11 L1078.73,2192.27 L1081.12,2192.29 L1081.16,2192.04 L1081.23,2191.73 L1081.33,2191.42 L1081.46,2191.13 L1081.62,2190.85 L1081.81,2190.59 L1082.01,2190.35 L1082.25,2190.12 L1082.5,2189.93 L1083.06,2189.62 L1083.67,2189.42 L1084.3,2189.34 L1084.94,2189.39 L1085.55,2189.56 L1086.12,2189.85 L1086.63,2190.25 L1087.05,2190.73 L1087.21,2191 L1087.36,2191.29 L1087.47,2191.58 L1087.56,2191.9 L1087.63,2192.34 L1124.43,2192.64 L1124.43,2192.28 L1125.15,2192.28 L1125.18,2189.55 L1125.21,2185.68 L1130.29,2185.72 L1130.26,2188.7 L1195.27,2189.22 L1195.3,2186.25 L1200.38,2186.29 L1200.34,2190.35 L1200.32,2192.89 L1201.05,2192.9 L1201.04,2193.26 L1237.84,2193.56 L1237.88,2193.31 L1237.95,2193 L1238.05,2192.7 L1238.19,2192.4 L1238.34,2192.13 L1238.53,2191.86 L1238.73,2191.62 L1238.97,2191.4 L1239.22,2191.2 L1239.78,2190.89 L1240.38,2190.69 L1241.02,2190.61 L1241.66,2190.66 L1242.27,2190.83 L1242.85,2191.12 L1243.35,2191.52 L1243.77,2192 L1243.93,2192.27 L1244.08,2192.56 L1244.19,2192.85 L1244.28,2193.17 L1244.35,2193.62 L1263.93,2193.77 L1264.65,2193.78 L1266.24,2191.05 L1378.87,1999.08 L1406.99,1999.31 L1406.96,2002.22 L1410.61,2022.56 L1412.42,2022.58 L1475.62,2023.09 L1479.59,2002.81 L1479.61,1999.9 L1491.09,1999.99 L1507.73,2000.13 L1567.73,2106.31 L1617.71,2194.77 L1618.77,2196.65 L1646.39,2196.88 L1647.44,2195.09 L1760.61,2002.18 L1788.73,2002.41 L1788.7,2005.31 L1792.35,2025.66 L1800.08,2025.72 L1857.36,2026.19 L1861.33,2005.9 L1861.36,2003 L1871.6,2003.08 L1889.47,2003.23 L2000.41,2199.56 L2000.52,2199.75 L2021.8,2199.92 L2021.83,2199.78 L2021.83,2199.74 L2021.9,2199.46 L2021.99,2199.19 L2022.1,2198.92 L2022.24,2198.68 L2022.41,2198.44 L2022.59,2198.23 L2022.8,2198.03 L2023.02,2197.86 L2023.52,2197.58 L2024.06,2197.41 L2024.63,2197.34 L2025.19,2197.38 L2025.74,2197.53 L2026.25,2197.79 L2026.7,2198.14 L2027.07,2198.57 L2027.22,2198.81 L2027.35,2199.07 L2027.45,2199.33 L2027.52,2199.61 L2027.56,2199.84 L2027.58,2199.97 L2050.16,2200.16 L2050.17,2198.99 L2050.53,2199 L2050.66,2183.76 L2050.29,2183.76 L2050.3,2182.31 L2050.67,2182.31 L2050.94,2148.69 L2050.58,2148.69 L2050.59,2147.24 L2050.95,2147.24 L2051.22,2114.35 L2050.86,2114.35 L2050.87,2112.89 L2051.23,2112.9 L2051.5,2079.28 L2051.14,2079.28 L2051.15,2078.55 L2050.22,2078.54 L2043.09,2078.49 L2043.1,2077.83 L2043.13,2073.41 L2046.83,2073.44 L2047.32,2013.94 L2043.62,2013.91 L2043.66,2008.83 L2051.71,2008.9 L2051.72,2008.17 L2052.08,2008.18 L2052.36,1974.56 L2051.99,1974.56 L2052,1973.1 L2052.37,1973.11 L2052.63,1940.22 L2052.27,1940.21 L2052.28,1938.76 L2052.64,1938.77 L2052.85,1913.71 L2052.92,1905.15 L2052.55,1905.15 L2052.57,1903.69 L2052.93,1903.7 L2053.03,1891.8 L2052.68,1891.8 L2052.68,1891.07 L2046.07,1891.02 L2007.49,1890.7 L2001.37,1890.65 L2001.64,1857.63 L2001.66,1854.67 L2001.67,1854.05 L2004.86,1854.08 L2007.42,1853.6 L2023.62,1850.59 L2025.14,1850.31 L2025.35,1850.27 L2026.07,1762.57 L2026.43,1717.37 L2026.46,1714.24 L2025.13,1713.93 L2024.7,1713.83 L2007.77,1709.95 L2007.33,1709.85 L2007.16,1709.81 L2006.18,1709.59 L2003.42,1709.57 L2003.28,1709.56 L2003.28,1708.92 L2003.56,1675.46 L2003.79,1646.5 L2003.79,1645.96 L2006.7,1645.98 L2007.05,1645.92 L2007.88,1645.77 L2025.33,1642.57 L2027.06,1642.25 L2027.36,1604.43 L2027.37,1602.98 L2027.8,1550.2 L2027.81,1548.75 L2027.89,1538.97 L2028.08,1514.14 L2028.13,1508.3 L2028.16,1505.11 L2027.35,1504.97 L2026.48,1504.82 L2009.98,1502 L2009.08,1501.85 L2007.87,1501.64 L2006.79,1501.63 L2005.63,1501.62 L2004.97,1501.62 L2004.97,1501.14 L2005.23,1468.89 L2005.23,1468.46 L2005.49,1436.85 L2005.5,1436.28 L2008.4,1436.3 L2009.85,1436.03 L2021.28,1433.9 L2027.37,1432.76 L2029.18,1432.42 L2030.08,1322.21 L2030.26,1299.27 L2030.27,1298.12 L2030.29,1296.06 L2030,1296 L2028.56,1295.71 L2012.2,1292.38 L2011.1,1292.15 L2009.57,1291.84 L2009.57,1291.67 L2009.22,1291.66 L2007.85,1291.65 L2006.67,1291.65 L2006.68,1291 L2007.06,1243.71 L2007.18,1228.58 L2007.19,1228.04 L2010.08,1228.06 L2011.5,1227.81 L2025.66,1225.16 L2029.07,1224.53 L2030.87,1224.19 L2031.96,1090.5 L2031.97,1089.02 L2031.98,1087.25 L2030.26,1086.9 L2014.41,1083.67 L2012.79,1083.34 L2011.27,1083.03 L2011.27,1082.93 L2010.06,1082.92 L2008.37,1082.91 L2008.37,1082.44 L2008.62,1050.97 L2008.63,1050.54 L2008.88,1019.01 L2008.89,1018.45 L2011.48,1018.47 L2013.06,1018.14 L2030.3,1013.62 L2032.15,1013.13 L2033.22,881.326" vector-effect="none" fill-rule="evenodd"/>
   <path d="M1236.95,295.356 L1237.05,295.355 L1238.29,295.341 L1238.11,279.273 L1237.93,263.205 L1236.69,263.219 L1233.92,263.25 L1228.79,263.307 L1225.65,263.342 L1201.75,263.609 L1198.61,263.644 L1172.95,263.93 L1171.27,263.949 L1161.68,264.056 L1161.52,264.058 L1160,264.075 L1159.85,264.077 L1126.7,264.447 L1126.4,264.45 L1124.72,264.468 L1121.37,264.506 L1113.36,264.595 L1111.68,264.614 L1088.72,264.87 L1086.53,264.895 L1066.29,265.12 L1064.61,265.139 L1060.98,265.18 L1058.79,265.205 L1042.19,265.389 L1042.08,255.382 L1029.33,255.525 L1027.65,255.544 L1022.59,255.6 L1020.41,255.625 L1008.48,255.757 L1006.73,255.777 L1002.86,255.821 L993.732,255.922 L974.887,256.132 L973.271,256.151 L971.08,256.175 L964.027,256.253 L948.846,256.423 L928.099,256.654 L925.908,256.678 L914.659,256.804 L912.906,256.823 L899.075,256.978 L899.188,267.034 L899.332,279.986 L899.136,279.988 L893.232,280.054 L885.164,280.144 L858.495,280.44 L856.816,280.459 L849.522,280.54 L849.367,266.647 L849.346,264.838 L849.338,264.093 L849.327,263.158 L849.265,257.535 L833.416,257.711 L818.955,257.873 L817.275,257.892 L816.619,257.899 L800.578,258.078 L798.897,258.097 L784.481,258.257 L783.891,258.264 L782.802,258.276 L780.022,258.308 L768.05,258.44 L750.156,258.64 L748.475,258.659 L744.303,258.706 L742.623,258.725 L724.239,258.93 L722.493,258.949 L719.261,258.985 L718.238,258.997 L718.351,269.049 L717.693,269.056 L686.608,269.395 L683.685,269.427 L672,269.554 L670.319,269.572 L669.316,269.583 L669.197,269.584 L665.665,269.623 L665.546,269.624 L649.213,269.802 L647.459,269.821 L625.549,270.061 L623.796,270.08 L601.885,270.319 L556.356,270.815 L553.088,270.851 L552.12,270.861 L549.585,270.889 L535.54,271.043 L535.66,281.779 L535.703,285.648 L535.88,301.492 L535.916,304.632 L535.947,307.407 L535.952,307.926 L535.974,309.751 L535.979,310.249 L537.658,310.229 L538.458,381.927 L538.517,387.183 L538.983,428.927 L553.37,428.767 L553.662,454.913 L558.045,454.864 L558.063,456.467 L558.069,457.057 L658.859,455.932 L663.24,455.883 L677.848,455.719 L709.984,455.361 L724.59,455.198 L775.717,454.627 L790.323,454.464 L790.364,458.117 L784.522,458.182 L784.525,458.488 L784.88,490.318 L784.883,490.612 L784.948,496.453 L786.574,642.087 L788.399,642.067 L788.428,644.549 L803.18,644.385 L803.153,641.902 L804.686,641.884 L804.715,644.368 L896.155,643.348 L896.129,641.01 L901.973,640.946 L901.999,643.283 L993.439,642.263 L993.411,639.779 L994.946,639.761 L994.973,642.245 L1010.28,642.074 L1011.55,642.06 L1011.53,639.832 L1009.9,493.819 L1009.83,487.979 L1009.83,487.807 L1009.48,455.857 L1009.47,455.671 L1003.63,455.737 L1003.59,452.274 L1003.56,449.894 L1005.03,449.878 L1010.14,449.822 L1013.79,449.781 L1013.82,451.971 L1032.8,451.759 L1034.44,451.741 L1062.02,451.433 L1063.7,451.414 L1063.76,451.414 L1065.44,451.394 L1094.71,451.068 L1096.39,451.049 L1155.09,450.395 L1155.72,450.387 L1156.77,450.376 L1157.4,450.369 L1188.38,450.022 L1189.84,450.006 L1190.34,450.001 L1193.26,449.968 L1235.84,449.493 L1235.82,447.366 L1235.82,447.302 L1235.79,444.403 L1235.41,411.004 L1235.4,409.404 L1235.4,409.323 L1235.38,407.725 L1234.49,328.075 L1234.49,327.961 L1227.77,328.036 L1227.68,320.56 L1227.68,320.442 L1234.32,320.368 L1234.4,320.367 L1234.23,304.715 L1234.16,298.308 L1229.18,298.364 L1227.44,298.383 L1227.41,295.592 L1227.4,295.462 L1229.15,295.443 L1236.95,295.356" vector-effect="none" fill-rule="evenodd"/>
  </g>
  <g transform="matrix(0.999913,0,0,0.999913,9.22066e-16,0)" font-size="41.6667" font-family="Ubuntu" stroke-linejoin="bevel" stroke-width="10.6299" stroke="#232323" font-style="normal" stroke-opacity="1" font-weight="400" fill="none" stroke-linecap="square">
   <path d="M1240.6,64.2 L1160.85,61.7081 L897.3,65.1095 L899.63,21.8218 L774.852,22.1929 L736.472,22.6212 L659.59,23.9331 L659.476,72.7302 L496.98,72.6345 L430.892,73.8891 L432.571,233.915 L207.196,236.973 L208.001,494.149 L21.834,496.328 L22.6616,566.996 L150.191,568.598 L153.608,962.671 L617.099,955.204 L733.179,953.846 L958.781,952.374 L1021.15,952.541 L1017.28,762.666 L1264.52,759.031 L1457.76,757.752 L1457.71,753.038 L1453.92,536.305 L1473.81,535.574 L1474.1,459.06 L1466.58,178.042 L1238.54,181.557 L1240.6,64.2" vector-effect="none" fill-rule="evenodd"/>
   <path d="M1837.97,425.443 L1824.95,438.851 L1824.96,446.877 L1825.06,535.812 L1661.57,536.207 L1661.64,491.669 L1586.34,491.876 L1586.29,536.278 L1528.71,536.34 L1453.92,536.42 L1457.71,753.038 L1494.85,752.706 L1529.59,752.396 L1570.71,752.028 L1592.5,751.834 L1592.89,793.694 L1667.12,793.012 L1666.76,751.008 L1830.85,749.554 L1830.72,787.407 L1830.22,933.425 L1829.75,1070.82 L1788.65,1070.77 L1788.35,1140.38 L1829.43,1140.57 L1829.2,1178.41 L1789.44,1176.41 L1786.48,1234.55 L1785.98,1244.17 L1829.05,1246.3 L1828.2,1466.74 L1741.66,1462.42 L1711.61,1279.66 L1657.75,1279.76 L1657.76,1262.68 L1657.77,1253.34 L1293.59,1254.18 L1293.67,1280.02 L1240.23,1280.19 L1207.64,1464.45 L1060.72,1463.61 L1060.5,1487.81 L1018.98,1487.69 L1018.61,1553.51 L1060.1,1553.77 L1059.97,1590.17 L1017.89,1589.96 L1017.51,1657.52 L1059.59,1657.74 L1059.36,1685.41 L930.352,1709.4 L929.856,1837.02 L908.299,1836.97 L907.932,1923.12 L929.631,1923.19 L928.997,2050.79 L1060.33,2074.22 L1057.13,2193.11 L1121.85,2192.98 L1121.84,2235.5 L1195.54,2235.31 L1195.54,2192.93 L1260.68,2192.87 L1279.67,2310.62 L1595.82,2306.23 L1598.3,2280.52 L1614.87,2190.34 L1637.01,2189.48 L1658.18,2308.9 L1885.92,2310.22 L1971.53,2310.72 L1980.49,2259.86 L1991.94,2194.47 L2045.38,2194.31 L2045.21,2068.02 L2086.92,2067.88 L2086.91,1999.24 L2045.08,1999.21 L2044.95,1882.07 L2317.47,1881.42 L2317.33,1776.18 L2286.62,1776.24 L2285.39,843.535 L2041.42,843.978 L2041.3,727.568 L2083.01,727.431 L2082.84,658.902 L2041.13,659.039 L2041.17,622.329 L2082.88,622.192 L2082.77,554.109 L2040.92,554.223 L2041.19,424.407 L1837.97,425.443" vector-effect="none" fill-rule="evenodd"/>
  </g>
  <g transform="matrix(0.999913,0,0,0.999913,9.22066e-16,0)" font-size="41.6667" font-family="Ubuntu" stroke-linejoin="bevel" stroke-width="1" stroke="#000000" font-style="normal" stroke-opacity="1" font-weight="400" fill="none" stroke-linecap="square"/>
  <g transform="matrix(0.999913,0,0,0.999913,9.22066e-16,0)" font-size="41.6667" font-family="Ubuntu" stroke-linejoin="bevel" stroke-width="1" stroke="#000000" font-style="normal" stroke-opacity="1" font-weight="400" fill="none" stroke-linecap="square"/>
  <g transform="matrix(0.999913,0,0,0.999913,84.1646,1183.75)" font-size="41.6667" font-family="Ubuntu" fill-opacity="1" stroke="none" font-style="normal" font-weight="400" fill="#323232">
   <path d="M51.0781,0 L2.20313,0 L2.20313,-9.03125 L33.6875,-54.1719 L3.0625,-54.1719 L3.0625,-65.6719 L50.2188,-65.6719 L50.2188,-56.6875 L18.7813,-11.5 L51.0781,-11.5 L51.0781,0 M81.25,-41.4219 C78.3438,-41.4219 76.0677,-40.5 74.4219,-38.6563 C72.776,-36.8125 71.8333,-34.1979 71.5938,-30.8125 L90.8281,-30.8125 C90.7656,-34.1979 89.8802,-36.8125 88.1719,-38.6563 C86.4635,-40.5 84.1563,-41.4219 81.25,-41.4219 M83.1875,0.90625 C75.1042,0.90625 68.7865,-1.32552 64.2344,-5.78906 C59.6823,-10.2526 57.4063,-16.5729 57.4063,-24.75 C57.4063,-33.1667 59.5078,-39.6745 63.7109,-44.2734 C67.9141,-48.8724 73.7292,-51.1719 81.1563,-51.1719 C88.2604,-51.1719 93.7891,-49.1484 97.7422,-45.1016 C101.695,-41.0547 103.672,-35.4688 103.672,-28.3438 L103.672,-21.7031 L71.2813,-21.7031 C71.4271,-17.8073 72.5781,-14.7656 74.7344,-12.5781 C76.8906,-10.3906 79.9167,-9.29688 83.8125,-9.29688 C86.8333,-9.29688 89.6927,-9.61198 92.3906,-10.2422 C95.0885,-10.8724 97.9063,-11.875 100.844,-13.25 L100.844,-2.65625 C98.4479,-1.45833 95.8854,-0.565104 93.1563,0.0234375 C90.4271,0.611979 87.1042,0.90625 83.1875,0.90625 M161.156,0 L147.453,0 L147.453,-29.3281 C147.453,-32.9531 146.81,-35.6719 145.523,-37.4844 C144.237,-39.2969 142.188,-40.2031 139.375,-40.2031 C135.542,-40.2031 132.771,-38.9245 131.063,-36.3672 C129.354,-33.8099 128.5,-29.5625 128.5,-23.625 L128.5,0 L114.797,0 L114.797,-50.2188 L125.266,-50.2188 L127.109,-43.7969 L127.875,-43.7969 C129.396,-46.224 131.497,-48.0599 134.18,-49.3047 C136.862,-50.5495 139.911,-51.1719 143.328,-51.1719 C149.161,-51.1719 153.591,-49.5911 156.617,-46.4297 C159.643,-43.2682 161.156,-38.7083 161.156,-32.75 L161.156,0 M196.406,-10.0156 C198.802,-10.0156 201.677,-10.5417 205.031,-11.5938 L205.031,-1.39063 C201.615,0.140625 197.422,0.90625 192.453,0.90625 C186.974,0.90625 182.984,-0.479167 180.484,-3.25 C177.984,-6.02083 176.734,-10.1771 176.734,-15.7188 L176.734,-39.9375 L170.172,-39.9375 L170.172,-45.7344 L177.719,-50.3125 L181.672,-60.9219 L190.438,-60.9219 L190.438,-50.2188 L204.5,-50.2188 L204.5,-39.9375 L190.438,-39.9375 L190.438,-15.7188 C190.438,-13.7708 190.984,-12.3333 192.078,-11.4063 C193.172,-10.4792 194.615,-10.0156 196.406,-10.0156 M243.203,-51.1719 C245.057,-51.1719 246.599,-51.0365 247.828,-50.7656 L246.797,-37.9219 C245.693,-38.2135 244.344,-38.3594 242.75,-38.3594 C238.385,-38.3594 234.982,-37.237 232.539,-34.9922 C230.096,-32.7474 228.875,-29.6042 228.875,-25.5625 L228.875,0 L215.172,0 L215.172,-50.2188 L225.547,-50.2188 L227.578,-41.7813 L228.25,-41.7813 C229.802,-44.5938 231.904,-46.862 234.555,-48.5859 C237.206,-50.3099 240.089,-51.1719 243.203,-51.1719 M286.984,0 L284.344,-6.82813 L283.984,-6.82813 C281.672,-3.92188 279.297,-1.90625 276.859,-0.78125 C274.422,0.34375 271.24,0.90625 267.313,0.90625 C262.49,0.90625 258.693,-0.473958 255.922,-3.23438 C253.151,-5.99479 251.766,-9.91667 251.766,-15 C251.766,-20.3333 253.63,-24.2656 257.359,-26.7969 C261.089,-29.3281 266.714,-30.7292 274.234,-31 L282.953,-31.2656 L282.953,-33.4688 C282.953,-38.5625 280.344,-41.1094 275.125,-41.1094 C271.115,-41.1094 266.401,-39.8958 260.984,-37.4688 L256.438,-46.7188 C262.219,-49.7396 268.63,-51.25 275.672,-51.25 C282.411,-51.25 287.578,-49.7839 291.172,-46.8516 C294.766,-43.9193 296.563,-39.4583 296.563,-33.4688 L296.563,0 L286.984,0 M282.953,-23.2656 L277.641,-23.0938 C273.661,-22.9688 270.698,-22.2474 268.75,-20.9297 C266.802,-19.612 265.828,-17.6094 265.828,-14.9219 C265.828,-11.0573 268.047,-9.125 272.484,-9.125 C275.651,-9.125 278.188,-10.0365 280.094,-11.8594 C282,-13.6823 282.953,-16.1094 282.953,-19.1406 L282.953,-23.2656 M324.359,0 L310.656,0 L310.656,-69.9063 L324.359,-69.9063 L324.359,0 M359.516,-41.4219 C356.609,-41.4219 354.333,-40.5 352.688,-38.6563 C351.042,-36.8125 350.099,-34.1979 349.859,-30.8125 L369.094,-30.8125 C369.031,-34.1979 368.146,-36.8125 366.438,-38.6563 C364.729,-40.5 362.422,-41.4219 359.516,-41.4219 M361.453,0.90625 C353.37,0.90625 347.052,-1.32552 342.5,-5.78906 C337.948,-10.2526 335.672,-16.5729 335.672,-24.75 C335.672,-33.1667 337.773,-39.6745 341.977,-44.2734 C346.18,-48.8724 351.995,-51.1719 359.422,-51.1719 C366.526,-51.1719 372.055,-49.1484 376.008,-45.1016 C379.961,-41.0547 381.938,-35.4688 381.938,-28.3438 L381.938,-21.7031 L349.547,-21.7031 C349.693,-17.8073 350.844,-14.7656 353,-12.5781 C355.156,-10.3906 358.182,-9.29688 362.078,-9.29688 C365.099,-9.29688 367.958,-9.61198 370.656,-10.2422 C373.354,-10.8724 376.172,-11.875 379.109,-13.25 L379.109,-2.65625 C376.714,-1.45833 374.151,-0.565104 371.422,0.0234375 C368.693,0.611979 365.37,0.90625 361.453,0.90625 M428.109,-14.9219 C428.109,-9.76563 426.318,-5.83854 422.734,-3.14063 C419.151,-0.442708 413.797,0.90625 406.672,0.90625 C403.016,0.90625 399.901,0.658854 397.328,0.164063 C394.755,-0.330729 392.344,-1.05729 390.094,-2.01563 L390.094,-13.3438 C392.646,-12.1458 395.516,-11.1432 398.703,-10.3359 C401.891,-9.52865 404.698,-9.125 407.125,-9.125 C412.094,-9.125 414.578,-10.5625 414.578,-13.4375 C414.578,-14.5104 414.25,-15.3854 413.594,-16.0625 C412.938,-16.7396 411.799,-17.5026 410.18,-18.3516 C408.56,-19.2005 406.401,-20.1979 403.703,-21.3438 C399.849,-22.9583 397.016,-24.4531 395.203,-25.8281 C393.391,-27.2031 392.073,-28.7839 391.25,-30.5703 C390.427,-32.3568 390.016,-34.5521 390.016,-37.1563 C390.016,-41.6146 391.745,-45.0651 395.203,-47.5078 C398.661,-49.9505 403.563,-51.1719 409.906,-51.1719 C415.958,-51.1719 421.844,-49.8542 427.563,-47.2188 L423.438,-37.3281 C420.917,-38.4115 418.563,-39.2969 416.375,-39.9844 C414.188,-40.6719 411.958,-41.0156 409.688,-41.0156 C405.646,-41.0156 403.625,-39.9219 403.625,-37.7344 C403.625,-36.5052 404.276,-35.4427 405.578,-34.5469 C406.88,-33.651 409.729,-32.3177 414.125,-30.5469 C418.052,-28.9635 420.93,-27.4818 422.758,-26.1016 C424.586,-24.7214 425.935,-23.1328 426.805,-21.3359 C427.674,-19.5391 428.109,-17.401 428.109,-14.9219 M517.563,0 L503.688,0 L503.688,-28.3438 L477.672,-28.3438 L477.672,0 L463.75,0 L463.75,-65.6719 L477.672,-65.6719 L477.672,-39.9375 L503.688,-39.9375 L503.688,-65.6719 L517.563,-65.6719 L517.563,0 M543.984,-25.2031 C543.984,-20.2344 544.799,-16.4766 546.43,-13.9297 C548.06,-11.3828 550.719,-10.1094 554.406,-10.1094 C558.052,-10.1094 560.677,-11.375 562.281,-13.9063 C563.885,-16.4375 564.688,-20.2031 564.688,-25.2031 C564.688,-30.1719 563.88,-33.8984 562.266,-36.3828 C560.651,-38.8672 558,-40.1094 554.313,-40.1094 C550.656,-40.1094 548.021,-38.875 546.406,-36.4063 C544.792,-33.9375 543.984,-30.2031 543.984,-25.2031 M578.703,-25.2031 C578.703,-17.026 576.547,-10.6302 572.234,-6.01563 C567.922,-1.40104 561.917,0.90625 554.219,0.90625 C549.396,0.90625 545.143,-0.151042 541.461,-2.26563 C537.779,-4.38021 534.951,-7.41406 532.977,-11.3672 C531.003,-15.3203 530.016,-19.9323 530.016,-25.2031 C530.016,-33.4115 532.156,-39.7917 536.438,-44.3438 C540.719,-48.8958 546.734,-51.1719 554.484,-51.1719 C559.307,-51.1719 563.563,-50.1224 567.25,-48.0234 C570.938,-45.9245 573.768,-42.9141 575.742,-38.9922 C577.716,-35.0703 578.703,-30.474 578.703,-25.2031 M538.953,-63.1094 C538.953,-65.0573 539.513,-66.5573 540.633,-67.6094 C541.753,-68.6615 543.271,-69.1875 545.188,-69.1875 C547.167,-69.1875 548.719,-68.6328 549.844,-67.5234 C550.969,-66.4141 551.531,-64.9427 551.531,-63.1094 C551.531,-61.3177 550.961,-59.875 549.82,-58.7813 C548.68,-57.6875 547.135,-57.1406 545.188,-57.1406 C543.271,-57.1406 541.753,-57.6641 540.633,-58.7109 C539.513,-59.7578 538.953,-61.224 538.953,-63.1094 M557.047,-63.1094 C557.047,-65.2135 557.654,-66.7526 558.867,-67.7266 C560.081,-68.7005 561.589,-69.1875 563.391,-69.1875 C565.339,-69.1875 566.888,-68.6484 568.039,-67.5703 C569.19,-66.4922 569.766,-65.0052 569.766,-63.1094 C569.766,-61.2865 569.182,-59.8359 568.016,-58.7578 C566.849,-57.6797 565.307,-57.1406 563.391,-57.1406 C561.589,-57.1406 560.081,-57.6276 558.867,-58.6016 C557.654,-59.5755 557.047,-61.0781 557.047,-63.1094 M618.047,-51.1719 C619.901,-51.1719 621.443,-51.0365 622.672,-50.7656 L621.641,-37.9219 C620.536,-38.2135 619.188,-38.3594 617.594,-38.3594 C613.229,-38.3594 609.826,-37.237 607.383,-34.9922 C604.94,-32.7474 603.719,-29.6042 603.719,-25.5625 L603.719,0 L590.016,0 L590.016,-50.2188 L600.391,-50.2188 L602.422,-41.7813 L603.094,-41.7813 C604.646,-44.5938 606.747,-46.862 609.398,-48.5859 C612.049,-50.3099 614.932,-51.1719 618.047,-51.1719 M666.828,-14.9219 C666.828,-9.76563 665.036,-5.83854 661.453,-3.14063 C657.87,-0.442708 652.516,0.90625 645.391,0.90625 C641.734,0.90625 638.62,0.658854 636.047,0.164063 C633.474,-0.330729 631.063,-1.05729 628.813,-2.01563 L628.813,-13.3438 C631.365,-12.1458 634.234,-11.1432 637.422,-10.3359 C640.609,-9.52865 643.417,-9.125 645.844,-9.125 C650.813,-9.125 653.297,-10.5625 653.297,-13.4375 C653.297,-14.5104 652.969,-15.3854 652.313,-16.0625 C651.656,-16.7396 650.518,-17.5026 648.898,-18.3516 C647.279,-19.2005 645.12,-20.1979 642.422,-21.3438 C638.568,-22.9583 635.734,-24.4531 633.922,-25.8281 C632.109,-27.2031 630.792,-28.7839 629.969,-30.5703 C629.146,-32.3568 628.734,-34.5521 628.734,-37.1563 C628.734,-41.6146 630.464,-45.0651 633.922,-47.5078 C637.38,-49.9505 642.281,-51.1719 648.625,-51.1719 C654.677,-51.1719 660.563,-49.8542 666.281,-47.2188 L662.156,-37.3281 C659.635,-38.4115 657.281,-39.2969 655.094,-39.9844 C652.906,-40.6719 650.677,-41.0156 648.406,-41.0156 C644.365,-41.0156 642.344,-39.9219 642.344,-37.7344 C642.344,-36.5052 642.995,-35.4427 644.297,-34.5469 C645.599,-33.651 648.448,-32.3177 652.844,-30.5469 C656.771,-28.9635 659.648,-27.4818 661.477,-26.1016 C663.305,-24.7214 664.654,-23.1328 665.523,-21.3359 C666.393,-19.5391 666.828,-17.401 666.828,-14.9219 M709.391,0 L706.75,-6.82813 L706.391,-6.82813 C704.078,-3.92188 701.703,-1.90625 699.266,-0.78125 C696.828,0.34375 693.646,0.90625 689.719,0.90625 C684.896,0.90625 681.099,-0.473958 678.328,-3.23438 C675.557,-5.99479 674.172,-9.91667 674.172,-15 C674.172,-20.3333 676.036,-24.2656 679.766,-26.7969 C683.495,-29.3281 689.12,-30.7292 696.641,-31 L705.359,-31.2656 L705.359,-33.4688 C705.359,-38.5625 702.75,-41.1094 697.531,-41.1094 C693.521,-41.1094 688.807,-39.8958 683.391,-37.4688 L678.844,-46.7188 C684.625,-49.7396 691.036,-51.25 698.078,-51.25 C704.818,-51.25 709.984,-49.7839 713.578,-46.8516 C717.172,-43.9193 718.969,-39.4583 718.969,-33.4688 L718.969,0 L709.391,0 M705.359,-23.2656 L700.047,-23.0938 C696.068,-22.9688 693.104,-22.2474 691.156,-20.9297 C689.208,-19.612 688.234,-17.6094 688.234,-14.9219 C688.234,-11.0573 690.453,-9.125 694.891,-9.125 C698.057,-9.125 700.594,-10.0365 702.5,-11.8594 C704.406,-13.6823 705.359,-16.1094 705.359,-19.1406 L705.359,-23.2656 M764.953,0 L762.313,-6.82813 L761.953,-6.82813 C759.641,-3.92188 757.266,-1.90625 754.828,-0.78125 C752.391,0.34375 749.208,0.90625 745.281,0.90625 C740.458,0.90625 736.661,-0.473958 733.891,-3.23438 C731.12,-5.99479 729.734,-9.91667 729.734,-15 C729.734,-20.3333 731.599,-24.2656 735.328,-26.7969 C739.057,-29.3281 744.682,-30.7292 752.203,-31 L760.922,-31.2656 L760.922,-33.4688 C760.922,-38.5625 758.313,-41.1094 753.094,-41.1094 C749.083,-41.1094 744.37,-39.8958 738.953,-37.4688 L734.406,-46.7188 C740.188,-49.7396 746.599,-51.25 753.641,-51.25 C760.38,-51.25 765.547,-49.7839 769.141,-46.8516 C772.734,-43.9193 774.531,-39.4583 774.531,-33.4688 L774.531,0 L764.953,0 M760.922,-23.2656 L755.609,-23.0938 C751.63,-22.9688 748.667,-22.2474 746.719,-20.9297 C744.771,-19.612 743.797,-17.6094 743.797,-14.9219 C743.797,-11.0573 746.016,-9.125 750.453,-9.125 C753.62,-9.125 756.156,-10.0365 758.063,-11.8594 C759.969,-13.6823 760.922,-16.1094 760.922,-19.1406 L760.922,-23.2656 M802.328,0 L788.625,0 L788.625,-69.9063 L802.328,-69.9063 L802.328,0 M860.391,-50.2188 L860.391,-43.2656 L852.531,-41.2344 C853.969,-38.9948 854.688,-36.4792 854.688,-33.6875 C854.688,-28.3021 852.81,-24.1042 849.055,-21.0938 C845.299,-18.0833 840.083,-16.5781 833.406,-16.5781 L830.922,-16.7188 L828.906,-16.9375 C827.5,-15.8542 826.797,-14.6563 826.797,-13.3438 C826.797,-11.3646 829.313,-10.375 834.344,-10.375 L842.875,-10.375 C848.385,-10.375 852.586,-9.19271 855.477,-6.82813 C858.367,-4.46354 859.813,-0.989583 859.813,3.59375 C859.813,9.46875 857.365,14.0234 852.469,17.2578 C847.573,20.4922 840.542,22.1094 831.375,22.1094 C824.365,22.1094 819.01,20.888 815.313,18.4453 C811.615,16.0026 809.766,12.5781 809.766,8.17188 C809.766,5.15104 810.711,2.6224 812.602,0.585938 C814.492,-1.45052 817.26,-2.90625 820.906,-3.78125 C819.5,-4.375 818.273,-5.35417 817.227,-6.71875 C816.18,-8.08333 815.656,-9.52604 815.656,-11.0469 C815.656,-12.9635 816.211,-14.5599 817.32,-15.8359 C818.43,-17.112 820.031,-18.3646 822.125,-19.5938 C819.49,-20.7292 817.401,-22.5547 815.859,-25.0703 C814.318,-27.5859 813.547,-30.5521 813.547,-33.9688 C813.547,-39.4479 815.328,-43.6849 818.891,-46.6797 C822.453,-49.6745 827.542,-51.1719 834.156,-51.1719 C835.573,-51.1719 837.245,-51.0443 839.172,-50.7891 C841.099,-50.5339 842.333,-50.3438 842.875,-50.2188 L860.391,-50.2188 M821.625,7.09375 C821.625,8.97917 822.531,10.4609 824.344,11.5391 C826.156,12.6172 828.698,13.1563 831.969,13.1563 C836.875,13.1563 840.721,12.4844 843.508,11.1406 C846.294,9.79688 847.688,7.95313 847.688,5.60938 C847.688,3.72396 846.865,2.42188 845.219,1.70313 C843.573,0.984375 841.026,0.625 837.578,0.625 L830.484,0.625 C827.964,0.625 825.857,1.21615 824.164,2.39844 C822.471,3.58073 821.625,5.14583 821.625,7.09375 M826.609,-33.7813 C826.609,-31.0521 827.232,-28.8958 828.477,-27.3125 C829.721,-25.7292 831.615,-24.9375 834.156,-24.9375 C836.74,-24.9375 838.63,-25.7292 839.828,-27.3125 C841.026,-28.8958 841.625,-31.0521 841.625,-33.7813 C841.625,-39.8333 839.135,-42.8594 834.156,-42.8594 C829.125,-42.8594 826.609,-39.8333 826.609,-33.7813 M889.453,-41.4219 C886.547,-41.4219 884.271,-40.5 882.625,-38.6563 C880.979,-36.8125 880.036,-34.1979 879.797,-30.8125 L899.031,-30.8125 C898.969,-34.1979 898.083,-36.8125 896.375,-38.6563 C894.667,-40.5 892.359,-41.4219 889.453,-41.4219 M891.391,0.90625 C883.307,0.90625 876.99,-1.32552 872.438,-5.78906 C867.885,-10.2526 865.609,-16.5729 865.609,-24.75 C865.609,-33.1667 867.711,-39.6745 871.914,-44.2734 C876.117,-48.8724 881.932,-51.1719 889.359,-51.1719 C896.464,-51.1719 901.992,-49.1484 905.945,-45.1016 C909.898,-41.0547 911.875,-35.4688 911.875,-28.3438 L911.875,-21.7031 L879.484,-21.7031 C879.63,-17.8073 880.781,-14.7656 882.938,-12.5781 C885.094,-10.3906 888.12,-9.29688 892.016,-9.29688 C895.036,-9.29688 897.896,-9.61198 900.594,-10.2422 C903.292,-10.8724 906.109,-11.875 909.047,-13.25 L909.047,-2.65625 C906.651,-1.45833 904.089,-0.565104 901.359,0.0234375 C898.63,0.611979 895.307,0.90625 891.391,0.90625 M950.938,-51.1719 C956.875,-51.1719 961.521,-48.8568 964.875,-44.2266 C968.229,-39.5964 969.906,-33.2552 969.906,-25.2031 C969.906,-16.9115 968.174,-10.487 964.711,-5.92969 C961.247,-1.3724 956.536,0.90625 950.578,0.90625 C944.682,0.90625 940.057,-1.23958 936.703,-5.53125 L935.766,-5.53125 L933.469,0 L923,0 L923,-69.9063 L936.703,-69.9063 L936.703,-53.6406 C936.703,-51.5677 936.521,-48.2552 936.156,-43.7031 L936.703,-43.7031 C939.911,-48.6823 944.656,-51.1719 950.938,-51.1719 M946.547,-40.2031 C943.161,-40.2031 940.69,-39.1641 939.133,-37.0859 C937.576,-35.0078 936.766,-31.5729 936.703,-26.7813 L936.703,-25.2969 C936.703,-19.901 937.505,-16.0365 939.109,-13.7031 C940.714,-11.3698 943.25,-10.2031 946.719,-10.2031 C949.531,-10.2031 951.768,-11.4974 953.43,-14.0859 C955.091,-16.6745 955.922,-20.4375 955.922,-25.375 C955.922,-30.3229 955.083,-34.0313 953.406,-36.5 C951.729,-38.9688 949.443,-40.2031 946.547,-40.2031 M1013.11,0 L1010.47,-6.82813 L1010.11,-6.82813 C1007.8,-3.92188 1005.42,-1.90625 1002.98,-0.78125 C1000.55,0.34375 997.365,0.90625 993.438,0.90625 C988.615,0.90625 984.818,-0.473958 982.047,-3.23438 C979.276,-5.99479 977.891,-9.91667 977.891,-15 C977.891,-20.3333 979.755,-24.2656 983.484,-26.7969 C987.214,-29.3281 992.839,-30.7292 1000.36,-31 L1009.08,-31.2656 L1009.08,-33.4688 C1009.08,-38.5625 1006.47,-41.1094 1001.25,-41.1094 C997.24,-41.1094 992.526,-39.8958 987.109,-37.4688 L982.563,-46.7188 C988.344,-49.7396 994.755,-51.25 1001.8,-51.25 C1008.54,-51.25 1013.7,-49.7839 1017.3,-46.8516 C1020.89,-43.9193 1022.69,-39.4583 1022.69,-33.4688 L1022.69,0 L1013.11,0 M1009.08,-23.2656 L1003.77,-23.0938 C999.786,-22.9688 996.823,-22.2474 994.875,-20.9297 C992.927,-19.612 991.953,-17.6094 991.953,-14.9219 C991.953,-11.0573 994.172,-9.125 998.609,-9.125 C1001.78,-9.125 1004.31,-10.0365 1006.22,-11.8594 C1008.13,-13.6823 1009.08,-16.1094 1009.08,-19.1406 L1009.08,-23.2656 M986.828,-63.1094 C986.828,-65.0573 987.391,-66.5573 988.516,-67.6094 C989.641,-68.6615 991.161,-69.1875 993.078,-69.1875 C995.057,-69.1875 996.607,-68.6328 997.727,-67.5234 C998.846,-66.4141 999.406,-64.9427 999.406,-63.1094 C999.406,-61.3177 998.839,-59.875 997.703,-58.7813 C996.568,-57.6875 995.026,-57.1406 993.078,-57.1406 C991.161,-57.1406 989.641,-57.6641 988.516,-58.7109 C987.391,-59.7578 986.828,-61.224 986.828,-63.1094 M1004.94,-63.1094 C1004.94,-65.2135 1005.54,-66.7526 1006.76,-67.7266 C1007.97,-68.7005 1009.47,-69.1875 1011.27,-69.1875 C1013.21,-69.1875 1014.77,-68.6484 1015.92,-67.5703 C1017.08,-66.4922 1017.66,-65.0052 1017.66,-63.1094 C1017.66,-61.2865 1017.07,-59.8359 1015.9,-58.7578 C1014.73,-57.6797 1013.18,-57.1406 1011.27,-57.1406 C1009.47,-57.1406 1007.97,-57.6276 1006.76,-58.6016 C1005.54,-59.5755 1004.94,-61.0781 1004.94,-63.1094 M1072.36,0 L1070.52,-6.42188 L1069.8,-6.42188 C1068.33,-4.08854 1066.25,-2.28385 1063.55,-1.00781 C1060.86,0.268229 1057.79,0.90625 1054.34,0.90625 C1048.45,0.90625 1044,-0.674479 1041.01,-3.83594 C1038.01,-6.9974 1036.52,-11.5417 1036.52,-17.4688 L1036.52,-50.2188 L1050.22,-50.2188 L1050.22,-20.8906 C1050.22,-17.2656 1050.86,-14.5469 1052.15,-12.7344 C1053.43,-10.9219 1055.48,-10.0156 1058.3,-10.0156 C1062.13,-10.0156 1064.9,-11.2969 1066.61,-13.8594 C1068.32,-16.4219 1069.17,-20.6667 1069.17,-26.5938 L1069.17,-50.2188 L1082.88,-50.2188 L1082.88,0 L1072.36,0 M1113.14,0.90625 C1107.23,0.90625 1102.6,-1.38542 1099.23,-5.96875 C1095.87,-10.5521 1094.19,-16.901 1094.19,-25.0156 C1094.19,-33.2552 1095.9,-39.6745 1099.33,-44.2734 C1102.76,-48.8724 1107.48,-51.1719 1113.5,-51.1719 C1119.81,-51.1719 1124.64,-48.7135 1127.97,-43.7969 L1128.41,-43.7969 C1127.72,-47.5469 1127.38,-50.8854 1127.38,-53.8125 L1127.38,-69.9063 L1141.13,-69.9063 L1141.13,0 L1130.61,0 L1127.97,-6.51563 L1127.38,-6.51563 C1124.26,-1.56771 1119.52,0.90625 1113.14,0.90625 M1117.94,-10.0156 C1121.45,-10.0156 1124.02,-11.0339 1125.65,-13.0703 C1127.28,-15.1068 1128.17,-18.5677 1128.33,-23.4531 L1128.33,-24.9375 C1128.33,-30.3229 1127.49,-34.1849 1125.83,-36.5234 C1124.16,-38.862 1121.46,-40.0313 1117.72,-40.0313 C1114.67,-40.0313 1112.29,-38.7344 1110.6,-36.1406 C1108.91,-33.5469 1108.06,-29.7813 1108.06,-24.8438 C1108.06,-19.9063 1108.92,-16.2005 1110.63,-13.7266 C1112.33,-11.2526 1114.77,-10.0156 1117.94,-10.0156 M1176.25,-41.4219 C1173.34,-41.4219 1171.07,-40.5 1169.42,-38.6563 C1167.78,-36.8125 1166.83,-34.1979 1166.59,-30.8125 L1185.83,-30.8125 C1185.77,-34.1979 1184.88,-36.8125 1183.17,-38.6563 C1181.46,-40.5 1179.16,-41.4219 1176.25,-41.4219 M1178.19,0.90625 C1170.1,0.90625 1163.79,-1.32552 1159.23,-5.78906 C1154.68,-10.2526 1152.41,-16.5729 1152.41,-24.75 C1152.41,-33.1667 1154.51,-39.6745 1158.71,-44.2734 C1162.91,-48.8724 1168.73,-51.1719 1176.16,-51.1719 C1183.26,-51.1719 1188.79,-49.1484 1192.74,-45.1016 C1196.7,-41.0547 1198.67,-35.4688 1198.67,-28.3438 L1198.67,-21.7031 L1166.28,-21.7031 C1166.43,-17.8073 1167.58,-14.7656 1169.73,-12.5781 C1171.89,-10.3906 1174.92,-9.29688 1178.81,-9.29688 C1181.83,-9.29688 1184.69,-9.61198 1187.39,-10.2422 C1190.09,-10.8724 1192.91,-11.875 1195.84,-13.25 L1195.84,-2.65625 C1193.45,-1.45833 1190.89,-0.565104 1188.16,0.0234375 C1185.43,0.611979 1182.1,0.90625 1178.19,0.90625 M1230.19,-25.2031 C1230.19,-33.1406 1231.35,-40.5677 1233.66,-47.4844 C1235.98,-54.401 1239.33,-60.4635 1243.7,-65.6719 L1254.94,-65.6719 C1250.72,-59.8906 1247.53,-53.5417 1245.38,-46.625 C1243.22,-39.7083 1242.14,-32.599 1242.14,-25.2969 C1242.14,-17.9531 1243.24,-10.8594 1245.44,-4.01563 C1247.64,2.82813 1250.77,9.02083 1254.84,14.5625 L1243.7,14.5625 C1239.31,9.46875 1235.96,3.52083 1233.65,-3.28125 C1231.34,-10.0833 1230.19,-17.3906 1230.19,-25.2031 M1308.75,0 L1259.88,0 L1259.88,-9.03125 L1291.36,-54.1719 L1260.73,-54.1719 L1260.73,-65.6719 L1307.89,-65.6719 L1307.89,-56.6875 L1276.45,-11.5 L1308.75,-11.5 L1308.75,0 M1373.02,0 L1359.14,0 L1359.14,-28.3438 L1333.13,-28.3438 L1333.13,0 L1319.2,0 L1319.2,-65.6719 L1333.13,-65.6719 L1333.13,-39.9375 L1359.14,-39.9375 L1359.14,-65.6719 L1373.02,-65.6719 L1373.02,0 M1414.53,-36.875 L1440.58,-36.875 L1440.58,-2.82813 C1436.36,-1.45313 1432.39,-0.486979 1428.66,0.0703125 C1424.93,0.627604 1421.11,0.90625 1417.22,0.90625 C1407.31,0.90625 1399.74,-2.00781 1394.52,-7.83594 C1389.29,-13.6641 1386.67,-22.026 1386.67,-32.9219 C1386.67,-43.526 1389.71,-51.7943 1395.77,-57.7266 C1401.84,-63.6589 1410.25,-66.625 1421,-66.625 C1427.74,-66.625 1434.23,-65.276 1440.48,-62.5781 L1435.86,-51.4375 C1431.07,-53.8333 1426.08,-55.0313 1420.91,-55.0313 C1414.89,-55.0313 1410.06,-53.0104 1406.44,-48.9688 C1402.81,-44.9271 1401,-39.4896 1401,-32.6563 C1401,-25.5313 1402.46,-20.0885 1405.38,-16.3281 C1408.3,-12.5677 1412.55,-10.6875 1418.13,-10.6875 C1421.03,-10.6875 1423.98,-10.9896 1426.97,-11.5938 L1426.97,-25.2969 L1414.53,-25.2969 L1414.53,-36.875 M1475.44,-25.2031 C1475.44,-17.3281 1474.28,-9.98958 1471.95,-3.1875 C1469.63,3.61458 1466.28,9.53125 1461.91,14.5625 L1450.77,14.5625 C1454.81,9.05208 1457.94,2.875 1460.16,-3.96875 C1462.38,-10.8125 1463.48,-17.9219 1463.48,-25.2969 C1463.48,-32.599 1462.41,-39.7083 1460.25,-46.625 C1458.09,-53.5417 1454.9,-59.8906 1450.67,-65.6719 L1461.91,-65.6719 C1466.31,-60.4323 1469.67,-54.3464 1471.98,-47.4141 C1474.28,-40.4818 1475.44,-33.0781 1475.44,-25.2031 " vector-effect="none" fill-rule="nonzero"/>
  </g>
  <g transform="matrix(0.999913,0,0,0.999913,9.22066e-16,0)" font-size="41.6667" font-family="Ubuntu" stroke-linejoin="bevel" stroke-width="1" stroke="#000000" font-style="normal" stroke-opacity="1" font-weight="400" fill="none" stroke-linecap="square"/>
  <g transform="matrix(0.999913,0,0,0.999913,773.413,436.053)" font-size="41.6667" font-family="Ubuntu" fill-opacity="1" stroke="none" font-style="normal" font-weight="400" fill="#323232">
   <path d="M31.0625,0 L12.8906,-47.4688 L12.5938,-47.4688 C12.9375,-43.7083 13.1094,-39.2396 13.1094,-34.0625 L13.1094,0 L7.35938,0 L7.35938,-53.5469 L16.7344,-53.5469 L33.6875,-9.375 L33.9844,-9.375 L51.0938,-53.5469 L60.3906,-53.5469 L60.3906,0 L54.1563,0 L54.1563,-34.5 C54.1563,-38.4583 54.3281,-42.7552 54.6719,-47.3906 L54.375,-47.3906 L36.0781,0 L31.0625,0 M91.1094,0.734375 C85.1719,0.734375 80.4896,-1.07292 77.0625,-4.6875 C73.6354,-8.30208 71.9219,-13.3177 71.9219,-19.7344 C71.9219,-26.2031 73.513,-31.3438 76.6953,-35.1563 C79.8776,-38.9688 84.1563,-40.875 89.5313,-40.875 C94.5625,-40.875 98.5417,-39.2188 101.469,-35.9063 C104.396,-32.5938 105.859,-28.2292 105.859,-22.8125 L105.859,-18.9688 L78.2188,-18.9688 C78.3333,-14.2604 79.5208,-10.6849 81.7813,-8.24219 C84.0417,-5.79948 87.224,-4.57813 91.3281,-4.57813 C95.651,-4.57813 99.9219,-5.47917 104.141,-7.28125 L104.141,-1.875 C101.995,-0.9375 99.9635,-0.268229 98.0469,0.132813 C96.1302,0.533854 93.8177,0.734375 91.1094,0.734375 M89.4531,-35.7813 C86.2344,-35.7813 83.6667,-34.7318 81.75,-32.6328 C79.8333,-30.5339 78.7031,-27.625 78.3594,-23.9063 L99.3438,-23.9063 C99.3438,-27.7396 98.4896,-30.6771 96.7813,-32.7188 C95.0729,-34.7604 92.6302,-35.7813 89.4531,-35.7813 M143.672,0 L143.672,-25.9688 C143.672,-29.2396 142.927,-31.6797 141.438,-33.2891 C139.948,-34.8984 137.62,-35.7031 134.453,-35.7031 C130.255,-35.7031 127.18,-34.5677 125.227,-32.2969 C123.273,-30.026 122.297,-26.2813 122.297,-21.0625 L122.297,0 L116.219,0 L116.219,-40.1406 L121.156,-40.1406 L122.141,-34.6406 L122.438,-34.6406 C123.677,-36.6198 125.422,-38.1536 127.672,-39.2422 C129.922,-40.3307 132.427,-40.875 135.188,-40.875 C140.021,-40.875 143.656,-39.7083 146.094,-37.375 C148.531,-35.0417 149.75,-31.3125 149.75,-26.1875 L149.75,0 L143.672,0 M188.141,-10.9531 C188.141,-7.21354 186.747,-4.33073 183.961,-2.30469 C181.174,-0.278646 177.266,0.734375 172.234,0.734375 C166.911,0.734375 162.76,-0.109375 159.781,-1.79688 L159.781,-7.4375 C161.719,-6.45833 163.792,-5.6875 166,-5.125 C168.208,-4.5625 170.339,-4.28125 172.391,-4.28125 C175.557,-4.28125 177.997,-4.78906 179.711,-5.80469 C181.424,-6.82031 182.281,-8.36458 182.281,-10.4375 C182.281,-12 181.602,-13.3359 180.242,-14.4453 C178.883,-15.5547 176.24,-16.8698 172.313,-18.3906 C168.573,-19.776 165.917,-20.987 164.344,-22.0234 C162.771,-23.0599 161.599,-24.2396 160.828,-25.5625 C160.057,-26.8854 159.672,-28.4583 159.672,-30.2813 C159.672,-33.5521 161.003,-36.1354 163.664,-38.0313 C166.326,-39.9271 169.979,-40.875 174.625,-40.875 C178.948,-40.875 183.172,-39.9948 187.297,-38.2344 L185.125,-33.2813 C181.104,-34.9479 177.458,-35.7813 174.188,-35.7813 C171.302,-35.7813 169.128,-35.3281 167.664,-34.4219 C166.201,-33.5156 165.469,-32.2708 165.469,-30.6875 C165.469,-29.6146 165.742,-28.7005 166.289,-27.9453 C166.836,-27.1901 167.721,-26.4688 168.945,-25.7813 C170.169,-25.0938 172.51,-24.1042 175.969,-22.8125 C180.729,-21.0833 183.948,-19.3385 185.625,-17.5781 C187.302,-15.8177 188.141,-13.6094 188.141,-10.9531 M222.688,0 L221.484,-5.71875 L221.188,-5.71875 C219.188,-3.19792 217.193,-1.49219 215.203,-0.601563 C213.214,0.289063 210.729,0.734375 207.75,0.734375 C203.771,0.734375 200.651,-0.291667 198.391,-2.34375 C196.13,-4.39583 195,-7.3125 195,-11.0938 C195,-19.1979 201.484,-23.4479 214.453,-23.8438 L221.266,-24.0625 L221.266,-26.5469 C221.266,-29.7031 220.589,-32.0313 219.234,-33.5313 C217.88,-35.0313 215.714,-35.7813 212.734,-35.7813 C209.391,-35.7813 205.604,-34.7552 201.375,-32.7031 L199.516,-37.3594 C201.484,-38.4323 203.648,-39.2734 206.008,-39.8828 C208.367,-40.4922 210.729,-40.7969 213.094,-40.7969 C217.885,-40.7969 221.432,-39.7344 223.734,-37.6094 C226.036,-35.4844 227.188,-32.0781 227.188,-27.3906 L227.188,0 L222.688,0 M208.953,-4.28125 C212.745,-4.28125 215.719,-5.32031 217.875,-7.39844 C220.031,-9.47656 221.109,-12.3802 221.109,-16.1094 L221.109,-19.7344 L215.031,-19.4844 C210.198,-19.3073 206.714,-18.5547 204.578,-17.2266 C202.443,-15.8984 201.375,-13.8281 201.375,-11.0156 C201.375,-8.82813 202.042,-7.15885 203.375,-6.00781 C204.708,-4.85677 206.568,-4.28125 208.953,-4.28125 " vector-effect="none" fill-rule="nonzero"/>
  </g>
  <g transform="matrix(0.999913,0,0,0.999913,9.22066e-16,0)" font-size="41.6667" font-family="Ubuntu" stroke-linejoin="bevel" stroke-width="1" stroke="#000000" font-style="normal" stroke-opacity="1" font-weight="400" fill="none" stroke-linecap="square"/>
  <g transform="matrix(0.999913,0,0,0.999913,1671.16,1688.15)" font-size="41.6667" font-family="Ubuntu" fill-opacity="1" stroke="none" font-style="normal" font-weight="400" fill="#323232">
   <path d="M13.5938,0 L7.35938,0 L7.35938,-53.5469 L37.2031,-53.5469 L37.2031,-48.0156 L13.5938,-48.0156 L13.5938,-28.4219 L35.7813,-28.4219 L35.7813,-22.8906 L13.5938,-22.8906 L13.5938,0 M79.7969,-20.1094 C79.7969,-13.5677 78.1484,-8.45833 74.8516,-4.78125 C71.5547,-1.10417 67,0.734375 61.1875,0.734375 C57.6042,0.734375 54.4193,-0.109375 51.6328,-1.79688 C48.8464,-3.48438 46.6979,-5.90104 45.1875,-9.04688 C43.6771,-12.1927 42.9219,-15.8802 42.9219,-20.1094 C42.9219,-26.651 44.5573,-31.7474 47.8281,-35.3984 C51.099,-39.0495 55.6354,-40.875 61.4375,-40.875 C67.0625,-40.875 71.5286,-39.0052 74.8359,-35.2656 C78.1432,-31.526 79.7969,-26.474 79.7969,-20.1094 M49.2188,-20.1094 C49.2188,-14.9844 50.2422,-11.0781 52.2891,-8.39063 C54.3359,-5.70313 57.349,-4.35938 61.3281,-4.35938 C65.3073,-4.35938 68.3307,-5.69531 70.3984,-8.36719 C72.4661,-11.0391 73.5,-14.9531 73.5,-20.1094 C73.5,-25.2135 72.4661,-29.0885 70.3984,-31.7344 C68.3307,-34.3802 65.2865,-35.7031 61.2656,-35.7031 C57.2865,-35.7031 54.2839,-34.3984 52.2578,-31.7891 C50.2318,-29.1797 49.2188,-25.2865 49.2188,-20.1094 M82.5781,-40.1406 L89.0938,-40.1406 L97.875,-17.25 C99.8125,-12.0208 101.01,-8.25 101.469,-5.9375 L101.766,-5.9375 C102.078,-7.17708 102.742,-9.30469 103.758,-12.3203 C104.773,-15.3359 108.089,-24.6094 113.703,-40.1406 L120.219,-40.1406 L102.969,5.5625 C101.26,10.0833 99.2656,13.2891 96.9844,15.1797 C94.7031,17.0703 91.901,18.0156 88.5781,18.0156 C86.724,18.0156 84.8958,17.8073 83.0938,17.3906 L83.0938,12.5313 C84.4271,12.8229 85.9271,12.9688 87.5938,12.9688 C91.7708,12.9688 94.75,10.625 96.5313,5.9375 L98.7656,0.21875 L82.5781,-40.1406 M143.688,0.734375 C137.75,0.734375 133.068,-1.07292 129.641,-4.6875 C126.214,-8.30208 124.5,-13.3177 124.5,-19.7344 C124.5,-26.2031 126.091,-31.3438 129.273,-35.1563 C132.456,-38.9688 136.734,-40.875 142.109,-40.875 C147.141,-40.875 151.12,-39.2188 154.047,-35.9063 C156.974,-32.5938 158.438,-28.2292 158.438,-22.8125 L158.438,-18.9688 L130.797,-18.9688 C130.911,-14.2604 132.099,-10.6849 134.359,-8.24219 C136.62,-5.79948 139.802,-4.57813 143.906,-4.57813 C148.229,-4.57813 152.5,-5.47917 156.719,-7.28125 L156.719,-1.875 C154.573,-0.9375 152.542,-0.268229 150.625,0.132813 C148.708,0.533854 146.396,0.734375 143.688,0.734375 M142.031,-35.7813 C138.813,-35.7813 136.245,-34.7318 134.328,-32.6328 C132.411,-30.5339 131.281,-27.625 130.938,-23.9063 L151.922,-23.9063 C151.922,-27.7396 151.068,-30.6771 149.359,-32.7188 C147.651,-34.7604 145.208,-35.7813 142.031,-35.7813 M187.094,-40.875 C188.875,-40.875 190.474,-40.7292 191.891,-40.4375 L191.063,-34.7969 C189.396,-35.1615 187.927,-35.3438 186.656,-35.3438 C183.417,-35.3438 180.643,-34.0234 178.336,-31.3828 C176.029,-28.7422 174.875,-25.4583 174.875,-21.5313 L174.875,0 L168.797,0 L168.797,-40.1406 L173.813,-40.1406 L174.5,-32.7031 L174.797,-32.7031 C176.286,-35.3177 178.081,-37.3333 180.18,-38.75 C182.279,-40.1667 184.583,-40.875 187.094,-40.875 " vector-effect="none" fill-rule="nonzero"/>
  </g>
  <g transform="matrix(0.999913,0,0,0.999913,9.22066e-16,0)" font-size="41.6667" font-family="Ubuntu" stroke-linejoin="bevel" stroke-width="1" stroke="#000000" font-style="normal" stroke-opacity="1" font-weight="400" fill="none" stroke-linecap="square"/>
  <g transform="matrix(0.999913,0,0,0.999913,2044.19,978.063)" font-size="41.6667" font-family="Ubuntu" fill-opacity="1" stroke="none" font-style="normal" font-weight="400" fill="#323232">
   <path d="M7.35938,-53.5469 L22.4844,-53.5469 C29.5885,-53.5469 34.7266,-52.4844 37.8984,-50.3594 C41.0703,-48.2344 42.6563,-44.875 42.6563,-40.2813 C42.6563,-37.1042 41.7734,-34.4844 40.0078,-32.4219 C38.2422,-30.3594 35.6615,-29.026 32.2656,-28.4219 L32.2656,-28.0469 C40.3906,-26.6615 44.4531,-22.3906 44.4531,-15.2344 C44.4531,-10.4531 42.8359,-6.71875 39.6016,-4.03125 C36.3672,-1.34375 31.8438,0 26.0313,0 L7.35938,0 L7.35938,-53.5469 M13.5938,-30.6094 L23.8438,-30.6094 C28.2396,-30.6094 31.401,-31.2995 33.3281,-32.6797 C35.2552,-34.0599 36.2188,-36.3854 36.2188,-39.6563 C36.2188,-42.6667 35.1432,-44.8359 32.9922,-46.1641 C30.8411,-47.4922 27.4219,-48.1563 22.7344,-48.1563 L13.5938,-48.1563 L13.5938,-30.6094 M13.5938,-25.3438 L13.5938,-5.3125 L24.75,-5.3125 C29.0729,-5.3125 32.3281,-6.14844 34.5156,-7.82031 C36.7031,-9.49219 37.7969,-12.1094 37.7969,-15.6719 C37.7969,-18.9948 36.6797,-21.4375 34.4453,-23 C32.2109,-24.5625 28.8125,-25.3438 24.25,-25.3438 L13.5938,-25.3438 M89.6875,-20.1094 C89.6875,-13.5677 88.0391,-8.45833 84.7422,-4.78125 C81.4453,-1.10417 76.8906,0.734375 71.0781,0.734375 C67.4948,0.734375 64.3099,-0.109375 61.5234,-1.79688 C58.737,-3.48438 56.5885,-5.90104 55.0781,-9.04688 C53.5677,-12.1927 52.8125,-15.8802 52.8125,-20.1094 C52.8125,-26.651 54.4479,-31.7474 57.7188,-35.3984 C60.9896,-39.0495 65.526,-40.875 71.3281,-40.875 C76.9531,-40.875 81.4193,-39.0052 84.7266,-35.2656 C88.0339,-31.526 89.6875,-26.474 89.6875,-20.1094 M59.1094,-20.1094 C59.1094,-14.9844 60.1328,-11.0781 62.1797,-8.39063 C64.2266,-5.70313 67.2396,-4.35938 71.2188,-4.35938 C75.1979,-4.35938 78.2214,-5.69531 80.2891,-8.36719 C82.3568,-11.0391 83.3906,-14.9531 83.3906,-20.1094 C83.3906,-25.2135 82.3568,-29.0885 80.2891,-31.7344 C78.2214,-34.3802 75.1771,-35.7031 71.1563,-35.7031 C67.1771,-35.7031 64.1745,-34.3984 62.1484,-31.7891 C60.1224,-29.1797 59.1094,-25.2865 59.1094,-20.1094 M107.484,0 L101.25,0 L101.25,-53.5469 L131.094,-53.5469 L131.094,-48.0156 L107.484,-48.0156 L107.484,-28.4219 L129.672,-28.4219 L129.672,-22.8906 L107.484,-22.8906 L107.484,0 M158.781,0 L152.844,0 L152.844,-38.1563 C152.844,-41.3333 152.943,-44.3385 153.141,-47.1719 C152.63,-46.6615 152.057,-46.125 151.422,-45.5625 C150.786,-45 147.88,-42.6198 142.703,-38.4219 L139.484,-42.5938 L153.656,-53.5469 L158.781,-53.5469 L158.781,0" vector-effect="none" fill-rule="nonzero"/>
  </g>
  <g transform="matrix(0.999913,0,0,0.999913,9.22066e-16,0)" font-size="41.6667" font-family="Ubuntu" stroke-linejoin="bevel" stroke-width="1" stroke="#000000" font-style="normal" stroke-opacity="1" font-weight="400" fill="none" stroke-linecap="square"/>
  <g transform="matrix(0.999913,0,0,0.999913,2040.73,1449.48)" font-size="41.6667" font-family="Ubuntu" fill-opacity="1" stroke="none" font-style="normal" font-weight="400" fill="#323232">
   <path d="M7.35938,-53.5469 L22.4844,-53.5469 C29.5885,-53.5469 34.7266,-52.4844 37.8984,-50.3594 C41.0703,-48.2344 42.6563,-44.875 42.6563,-40.2813 C42.6563,-37.1042 41.7734,-34.4844 40.0078,-32.4219 C38.2422,-30.3594 35.6615,-29.026 32.2656,-28.4219 L32.2656,-28.0469 C40.3906,-26.6615 44.4531,-22.3906 44.4531,-15.2344 C44.4531,-10.4531 42.8359,-6.71875 39.6016,-4.03125 C36.3672,-1.34375 31.8438,0 26.0313,0 L7.35938,0 L7.35938,-53.5469 M13.5938,-30.6094 L23.8438,-30.6094 C28.2396,-30.6094 31.401,-31.2995 33.3281,-32.6797 C35.2552,-34.0599 36.2188,-36.3854 36.2188,-39.6563 C36.2188,-42.6667 35.1432,-44.8359 32.9922,-46.1641 C30.8411,-47.4922 27.4219,-48.1563 22.7344,-48.1563 L13.5938,-48.1563 L13.5938,-30.6094 M13.5938,-25.3438 L13.5938,-5.3125 L24.75,-5.3125 C29.0729,-5.3125 32.3281,-6.14844 34.5156,-7.82031 C36.7031,-9.49219 37.7969,-12.1094 37.7969,-15.6719 C37.7969,-18.9948 36.6797,-21.4375 34.4453,-23 C32.2109,-24.5625 28.8125,-25.3438 24.25,-25.3438 L13.5938,-25.3438 M89.6875,-20.1094 C89.6875,-13.5677 88.0391,-8.45833 84.7422,-4.78125 C81.4453,-1.10417 76.8906,0.734375 71.0781,0.734375 C67.4948,0.734375 64.3099,-0.109375 61.5234,-1.79688 C58.737,-3.48438 56.5885,-5.90104 55.0781,-9.04688 C53.5677,-12.1927 52.8125,-15.8802 52.8125,-20.1094 C52.8125,-26.651 54.4479,-31.7474 57.7188,-35.3984 C60.9896,-39.0495 65.526,-40.875 71.3281,-40.875 C76.9531,-40.875 81.4193,-39.0052 84.7266,-35.2656 C88.0339,-31.526 89.6875,-26.474 89.6875,-20.1094 M59.1094,-20.1094 C59.1094,-14.9844 60.1328,-11.0781 62.1797,-8.39063 C64.2266,-5.70313 67.2396,-4.35938 71.2188,-4.35938 C75.1979,-4.35938 78.2214,-5.69531 80.2891,-8.36719 C82.3568,-11.0391 83.3906,-14.9531 83.3906,-20.1094 C83.3906,-25.2135 82.3568,-29.0885 80.2891,-31.7344 C78.2214,-34.3802 75.1771,-35.7031 71.1563,-35.7031 C67.1771,-35.7031 64.1745,-34.3984 62.1484,-31.7891 C60.1224,-29.1797 59.1094,-25.2865 59.1094,-20.1094 M107.484,0 L101.25,0 L101.25,-53.5469 L131.094,-53.5469 L131.094,-48.0156 L107.484,-48.0156 L107.484,-28.4219 L129.672,-28.4219 L129.672,-22.8906 L107.484,-22.8906 L107.484,0 M171.453,0 L136.25,0 L136.25,-5.23438 L150.359,-19.4063 C154.651,-23.75 157.482,-26.8516 158.852,-28.7109 C160.221,-30.5703 161.247,-32.3776 161.93,-34.1328 C162.612,-35.888 162.953,-37.7813 162.953,-39.8125 C162.953,-42.6667 162.086,-44.9297 160.352,-46.6016 C158.617,-48.2734 156.214,-49.1094 153.141,-49.1094 C150.922,-49.1094 148.818,-48.7422 146.828,-48.0078 C144.839,-47.2734 142.62,-45.9427 140.172,-44.0156 L136.953,-48.1563 C141.88,-52.2604 147.25,-54.3125 153.063,-54.3125 C158.094,-54.3125 162.036,-53.0234 164.891,-50.4453 C167.745,-47.8672 169.172,-44.4063 169.172,-40.0625 C169.172,-36.6667 168.221,-33.3099 166.32,-29.9922 C164.419,-26.6745 160.854,-22.474 155.625,-17.3906 L143.906,-5.9375 L143.906,-5.64063 L171.453,-5.64063 L171.453,0" vector-effect="none" fill-rule="nonzero"/>
  </g>
  <g transform="matrix(0.999913,0,0,0.999913,9.22066e-16,0)" font-size="41.6667" font-family="Ubuntu" stroke-linejoin="bevel" stroke-width="1" stroke="#000000" font-style="normal" stroke-opacity="1" font-weight="400" fill="none" stroke-linecap="square"/>
  <g transform="matrix(0.999913,0,0,0.999913,2039.27,1605.62)" font-size="41.6667" font-family="Ubuntu" fill-opacity="1" stroke="none" font-style="normal" font-weight="400" fill="#323232">
   <path d="M7.35938,-53.5469 L22.4844,-53.5469 C29.5885,-53.5469 34.7266,-52.4844 37.8984,-50.3594 C41.0703,-48.2344 42.6563,-44.875 42.6563,-40.2813 C42.6563,-37.1042 41.7734,-34.4844 40.0078,-32.4219 C38.2422,-30.3594 35.6615,-29.026 32.2656,-28.4219 L32.2656,-28.0469 C40.3906,-26.6615 44.4531,-22.3906 44.4531,-15.2344 C44.4531,-10.4531 42.8359,-6.71875 39.6016,-4.03125 C36.3672,-1.34375 31.8438,0 26.0313,0 L7.35938,0 L7.35938,-53.5469 M13.5938,-30.6094 L23.8438,-30.6094 C28.2396,-30.6094 31.401,-31.2995 33.3281,-32.6797 C35.2552,-34.0599 36.2188,-36.3854 36.2188,-39.6563 C36.2188,-42.6667 35.1432,-44.8359 32.9922,-46.1641 C30.8411,-47.4922 27.4219,-48.1563 22.7344,-48.1563 L13.5938,-48.1563 L13.5938,-30.6094 M13.5938,-25.3438 L13.5938,-5.3125 L24.75,-5.3125 C29.0729,-5.3125 32.3281,-6.14844 34.5156,-7.82031 C36.7031,-9.49219 37.7969,-12.1094 37.7969,-15.6719 C37.7969,-18.9948 36.6797,-21.4375 34.4453,-23 C32.2109,-24.5625 28.8125,-25.3438 24.25,-25.3438 L13.5938,-25.3438 M89.6875,-20.1094 C89.6875,-13.5677 88.0391,-8.45833 84.7422,-4.78125 C81.4453,-1.10417 76.8906,0.734375 71.0781,0.734375 C67.4948,0.734375 64.3099,-0.109375 61.5234,-1.79688 C58.737,-3.48438 56.5885,-5.90104 55.0781,-9.04688 C53.5677,-12.1927 52.8125,-15.8802 52.8125,-20.1094 C52.8125,-26.651 54.4479,-31.7474 57.7188,-35.3984 C60.9896,-39.0495 65.526,-40.875 71.3281,-40.875 C76.9531,-40.875 81.4193,-39.0052 84.7266,-35.2656 C88.0339,-31.526 89.6875,-26.474 89.6875,-20.1094 M59.1094,-20.1094 C59.1094,-14.9844 60.1328,-11.0781 62.1797,-8.39063 C64.2266,-5.70313 67.2396,-4.35938 71.2188,-4.35938 C75.1979,-4.35938 78.2214,-5.69531 80.2891,-8.36719 C82.3568,-11.0391 83.3906,-14.9531 83.3906,-20.1094 C83.3906,-25.2135 82.3568,-29.0885 80.2891,-31.7344 C78.2214,-34.3802 75.1771,-35.7031 71.1563,-35.7031 C67.1771,-35.7031 64.1745,-34.3984 62.1484,-31.7891 C60.1224,-29.1797 59.1094,-25.2865 59.1094,-20.1094 M107.484,0 L101.25,0 L101.25,-53.5469 L131.094,-53.5469 L131.094,-48.0156 L107.484,-48.0156 L107.484,-28.4219 L129.672,-28.4219 L129.672,-22.8906 L107.484,-22.8906 L107.484,0 M169.438,-40.9375 C169.438,-37.5208 168.479,-34.7266 166.563,-32.5547 C164.646,-30.3828 161.927,-28.9323 158.406,-28.2031 L158.406,-27.9063 C162.708,-27.3646 165.896,-25.9974 167.969,-23.8047 C170.042,-21.612 171.078,-18.7292 171.078,-15.1563 C171.078,-10.0521 169.31,-6.1276 165.773,-3.38281 C162.237,-0.638021 157.208,0.734375 150.688,0.734375 C147.854,0.734375 145.26,0.520833 142.906,0.09375 C140.552,-0.333333 138.26,-1.08333 136.031,-2.15625 L136.031,-7.95313 C138.354,-6.79688 140.828,-5.92188 143.453,-5.32813 C146.078,-4.73438 148.563,-4.4375 150.906,-4.4375 C160.156,-4.4375 164.781,-8.0625 164.781,-15.3125 C164.781,-21.8021 159.677,-25.0469 149.469,-25.0469 L144.203,-25.0469 L144.203,-30.2813 L149.547,-30.2813 C153.724,-30.2813 157.034,-31.2031 159.477,-33.0469 C161.919,-34.8906 163.141,-37.4479 163.141,-40.7188 C163.141,-43.3333 162.242,-45.3854 160.445,-46.875 C158.648,-48.3646 156.214,-49.1094 153.141,-49.1094 C150.797,-49.1094 148.586,-48.7917 146.508,-48.1563 C144.43,-47.5208 142.063,-46.349 139.406,-44.6406 L136.328,-48.75 C138.526,-50.4792 141.06,-51.8385 143.93,-52.8281 C146.799,-53.8177 149.818,-54.3125 152.984,-54.3125 C158.193,-54.3125 162.237,-53.1224 165.117,-50.7422 C167.997,-48.362 169.438,-45.0938 169.438,-40.9375 " vector-effect="none" fill-rule="nonzero"/>
  </g>
  <g transform="matrix(0.999913,0,0,0.999913,9.22066e-16,0)" font-size="41.6667" font-family="Ubuntu" stroke-linejoin="bevel" stroke-width="1" stroke="#000000" font-style="normal" stroke-opacity="1" font-weight="400" fill="none" stroke-linecap="square"/>
  <g transform="matrix(0.999913,0,0,0.999913,1413.15,1528.02)" font-size="41.6667" font-family="Ubuntu" fill-opacity="1" stroke="none" font-style="normal" font-weight="400" fill="#323232">
   <path d="M48.0156,0 L41.7813,0 L41.7813,-25.2031 L13.5938,-25.2031 L13.5938,0 L7.35938,0 L7.35938,-53.5469 L13.5938,-53.5469 L13.5938,-30.7656 L41.7813,-30.7656 L41.7813,-53.5469 L48.0156,-53.5469 L48.0156,0 M92.9063,-14.25 C92.9063,-9.53125 91.1953,-5.85417 87.7734,-3.21875 C84.3516,-0.583333 79.7135,0.734375 73.8594,0.734375 C67.5156,0.734375 62.6302,-0.0833333 59.2031,-1.71875 L59.2031,-7.73438 C61.401,-6.79688 63.7943,-6.0599 66.3828,-5.52344 C68.9714,-4.98698 71.5365,-4.71875 74.0781,-4.71875 C78.224,-4.71875 81.349,-5.50781 83.4531,-7.08594 C85.5573,-8.66406 86.6094,-10.8542 86.6094,-13.6563 C86.6094,-15.5104 86.237,-17.0313 85.4922,-18.2188 C84.7474,-19.4063 83.5,-20.5 81.75,-21.5 C80,-22.5 77.3438,-23.6354 73.7813,-24.9063 C68.8021,-26.6875 65.2448,-28.7995 63.1094,-31.2422 C60.974,-33.6849 59.9063,-36.8698 59.9063,-40.7969 C59.9063,-44.9219 61.4557,-48.2057 64.5547,-50.6484 C67.6536,-53.0911 71.7552,-54.3125 76.8594,-54.3125 C82.1823,-54.3125 87.0781,-53.3333 91.5469,-51.375 L89.6094,-45.9531 C85.1927,-47.8177 80.8958,-48.75 76.7188,-48.75 C73.4167,-48.75 70.8385,-48.0417 68.9844,-46.625 C67.1302,-45.2083 66.2031,-43.2396 66.2031,-40.7188 C66.2031,-38.8646 66.5443,-37.3464 67.2266,-36.1641 C67.9089,-34.9818 69.0625,-33.8958 70.6875,-32.9063 C72.3125,-31.9167 74.7969,-30.8229 78.1406,-29.625 C83.7552,-27.625 87.6198,-25.4766 89.7344,-23.1797 C91.849,-20.8828 92.9063,-17.9063 92.9063,-14.25 M122.672,0 L116.734,0 L116.734,-38.1563 C116.734,-41.3333 116.833,-44.3385 117.031,-47.1719 C116.521,-46.6615 115.948,-46.125 115.313,-45.5625 C114.677,-45 111.771,-42.6198 106.594,-38.4219 L103.375,-42.5938 L117.547,-53.5469 L122.672,-53.5469 L122.672,0" vector-effect="none" fill-rule="nonzero"/>
  </g>
  <g transform="matrix(0.999913,0,0,0.999913,9.22066e-16,0)" font-size="41.6667" font-family="Ubuntu" stroke-linejoin="bevel" stroke-width="1" stroke="#000000" font-style="normal" stroke-opacity="1" font-weight="400" fill="none" stroke-linecap="square"/>
  <g transform="matrix(0.999913,0,0,0.999913,1007.79,1910.88)" font-size="41.6667" font-family="Ubuntu" fill-opacity="1" stroke="none" font-style="normal" font-weight="400" fill="#323232">
   <path d="M48.0156,0 L41.7813,0 L41.7813,-25.2031 L13.5938,-25.2031 L13.5938,0 L7.35938,0 L7.35938,-53.5469 L13.5938,-53.5469 L13.5938,-30.7656 L41.7813,-30.7656 L41.7813,-53.5469 L48.0156,-53.5469 L48.0156,0 M92.9063,-14.25 C92.9063,-9.53125 91.1953,-5.85417 87.7734,-3.21875 C84.3516,-0.583333 79.7135,0.734375 73.8594,0.734375 C67.5156,0.734375 62.6302,-0.0833333 59.2031,-1.71875 L59.2031,-7.73438 C61.401,-6.79688 63.7943,-6.0599 66.3828,-5.52344 C68.9714,-4.98698 71.5365,-4.71875 74.0781,-4.71875 C78.224,-4.71875 81.349,-5.50781 83.4531,-7.08594 C85.5573,-8.66406 86.6094,-10.8542 86.6094,-13.6563 C86.6094,-15.5104 86.237,-17.0313 85.4922,-18.2188 C84.7474,-19.4063 83.5,-20.5 81.75,-21.5 C80,-22.5 77.3438,-23.6354 73.7813,-24.9063 C68.8021,-26.6875 65.2448,-28.7995 63.1094,-31.2422 C60.974,-33.6849 59.9063,-36.8698 59.9063,-40.7969 C59.9063,-44.9219 61.4557,-48.2057 64.5547,-50.6484 C67.6536,-53.0911 71.7552,-54.3125 76.8594,-54.3125 C82.1823,-54.3125 87.0781,-53.3333 91.5469,-51.375 L89.6094,-45.9531 C85.1927,-47.8177 80.8958,-48.75 76.7188,-48.75 C73.4167,-48.75 70.8385,-48.0417 68.9844,-46.625 C67.1302,-45.2083 66.2031,-43.2396 66.2031,-40.7188 C66.2031,-38.8646 66.5443,-37.3464 67.2266,-36.1641 C67.9089,-34.9818 69.0625,-33.8958 70.6875,-32.9063 C72.3125,-31.9167 74.7969,-30.8229 78.1406,-29.625 C83.7552,-27.625 87.6198,-25.4766 89.7344,-23.1797 C91.849,-20.8828 92.9063,-17.9063 92.9063,-14.25 M135.344,0 L100.141,0 L100.141,-5.23438 L114.25,-19.4063 C118.542,-23.75 121.372,-26.8516 122.742,-28.7109 C124.112,-30.5703 125.138,-32.3776 125.82,-34.1328 C126.503,-35.888 126.844,-37.7813 126.844,-39.8125 C126.844,-42.6667 125.977,-44.9297 124.242,-46.6016 C122.508,-48.2734 120.104,-49.1094 117.031,-49.1094 C114.813,-49.1094 112.708,-48.7422 110.719,-48.0078 C108.729,-47.2734 106.51,-45.9427 104.063,-44.0156 L100.844,-48.1563 C105.771,-52.2604 111.141,-54.3125 116.953,-54.3125 C121.984,-54.3125 125.927,-53.0234 128.781,-50.4453 C131.635,-47.8672 133.063,-44.4063 133.063,-40.0625 C133.063,-36.6667 132.112,-33.3099 130.211,-29.9922 C128.31,-26.6745 124.745,-22.474 119.516,-17.3906 L107.797,-5.9375 L107.797,-5.64063 L135.344,-5.64063 L135.344,0" vector-effect="none" fill-rule="nonzero"/>
  </g>
  <g transform="matrix(0.999913,0,0,0.999913,9.22066e-16,0)" font-size="41.6667" font-family="Ubuntu" stroke-linejoin="bevel" stroke-width="1" stroke="#000000" font-style="normal" stroke-opacity="1" font-weight="400" fill="none" stroke-linecap="square"/>
  <g transform="matrix(0.999913,0,0,0.999913,1371.34,2215.59)" font-size="41.6667" font-family="Ubuntu" fill-opacity="1" stroke="none" font-style="normal" font-weight="400" fill="#323232">
   <path d="M48.0156,0 L41.7813,0 L41.7813,-25.2031 L13.5938,-25.2031 L13.5938,0 L7.35938,0 L7.35938,-53.5469 L13.5938,-53.5469 L13.5938,-30.7656 L41.7813,-30.7656 L41.7813,-53.5469 L48.0156,-53.5469 L48.0156,0 M92.9063,-14.25 C92.9063,-9.53125 91.1953,-5.85417 87.7734,-3.21875 C84.3516,-0.583333 79.7135,0.734375 73.8594,0.734375 C67.5156,0.734375 62.6302,-0.0833333 59.2031,-1.71875 L59.2031,-7.73438 C61.401,-6.79688 63.7943,-6.0599 66.3828,-5.52344 C68.9714,-4.98698 71.5365,-4.71875 74.0781,-4.71875 C78.224,-4.71875 81.349,-5.50781 83.4531,-7.08594 C85.5573,-8.66406 86.6094,-10.8542 86.6094,-13.6563 C86.6094,-15.5104 86.237,-17.0313 85.4922,-18.2188 C84.7474,-19.4063 83.5,-20.5 81.75,-21.5 C80,-22.5 77.3438,-23.6354 73.7813,-24.9063 C68.8021,-26.6875 65.2448,-28.7995 63.1094,-31.2422 C60.974,-33.6849 59.9063,-36.8698 59.9063,-40.7969 C59.9063,-44.9219 61.4557,-48.2057 64.5547,-50.6484 C67.6536,-53.0911 71.7552,-54.3125 76.8594,-54.3125 C82.1823,-54.3125 87.0781,-53.3333 91.5469,-51.375 L89.6094,-45.9531 C85.1927,-47.8177 80.8958,-48.75 76.7188,-48.75 C73.4167,-48.75 70.8385,-48.0417 68.9844,-46.625 C67.1302,-45.2083 66.2031,-43.2396 66.2031,-40.7188 C66.2031,-38.8646 66.5443,-37.3464 67.2266,-36.1641 C67.9089,-34.9818 69.0625,-33.8958 70.6875,-32.9063 C72.3125,-31.9167 74.7969,-30.8229 78.1406,-29.625 C83.7552,-27.625 87.6198,-25.4766 89.7344,-23.1797 C91.849,-20.8828 92.9063,-17.9063 92.9063,-14.25 M133.328,-40.9375 C133.328,-37.5208 132.37,-34.7266 130.453,-32.5547 C128.536,-30.3828 125.818,-28.9323 122.297,-28.2031 L122.297,-27.9063 C126.599,-27.3646 129.786,-25.9974 131.859,-23.8047 C133.932,-21.612 134.969,-18.7292 134.969,-15.1563 C134.969,-10.0521 133.201,-6.1276 129.664,-3.38281 C126.128,-0.638021 121.099,0.734375 114.578,0.734375 C111.745,0.734375 109.151,0.520833 106.797,0.09375 C104.443,-0.333333 102.151,-1.08333 99.9219,-2.15625 L99.9219,-7.95313 C102.245,-6.79688 104.719,-5.92188 107.344,-5.32813 C109.969,-4.73438 112.453,-4.4375 114.797,-4.4375 C124.047,-4.4375 128.672,-8.0625 128.672,-15.3125 C128.672,-21.8021 123.568,-25.0469 113.359,-25.0469 L108.094,-25.0469 L108.094,-30.2813 L113.438,-30.2813 C117.615,-30.2813 120.924,-31.2031 123.367,-33.0469 C125.81,-34.8906 127.031,-37.4479 127.031,-40.7188 C127.031,-43.3333 126.133,-45.3854 124.336,-46.875 C122.539,-48.3646 120.104,-49.1094 117.031,-49.1094 C114.688,-49.1094 112.477,-48.7917 110.398,-48.1563 C108.32,-47.5208 105.953,-46.349 103.297,-44.6406 L100.219,-48.75 C102.417,-50.4792 104.951,-51.8385 107.82,-52.8281 C110.69,-53.8177 113.708,-54.3125 116.875,-54.3125 C122.083,-54.3125 126.128,-53.1224 129.008,-50.7422 C131.888,-48.362 133.328,-45.0938 133.328,-40.9375 " vector-effect="none" fill-rule="nonzero"/>
  </g>
  <g transform="matrix(0.999913,0,0,0.999913,9.22066e-16,0)" font-size="41.6667" font-family="Ubuntu" stroke-linejoin="bevel" stroke-width="1" stroke="#000000" font-style="normal" stroke-opacity="1" font-weight="400" fill="none" stroke-linecap="square"/>
  <g transform="matrix(0.999913,0,0,0.999913,1752.73,2219.67)" font-size="41.6667" font-family="Ubuntu" fill-opacity="1" stroke="none" font-style="normal" font-weight="400" fill="#323232">
   <path d="M48.0156,0 L41.7813,0 L41.7813,-25.2031 L13.5938,-25.2031 L13.5938,0 L7.35938,0 L7.35938,-53.5469 L13.5938,-53.5469 L13.5938,-30.7656 L41.7813,-30.7656 L41.7813,-53.5469 L48.0156,-53.5469 L48.0156,0 M92.9063,-14.25 C92.9063,-9.53125 91.1953,-5.85417 87.7734,-3.21875 C84.3516,-0.583333 79.7135,0.734375 73.8594,0.734375 C67.5156,0.734375 62.6302,-0.0833333 59.2031,-1.71875 L59.2031,-7.73438 C61.401,-6.79688 63.7943,-6.0599 66.3828,-5.52344 C68.9714,-4.98698 71.5365,-4.71875 74.0781,-4.71875 C78.224,-4.71875 81.349,-5.50781 83.4531,-7.08594 C85.5573,-8.66406 86.6094,-10.8542 86.6094,-13.6563 C86.6094,-15.5104 86.237,-17.0313 85.4922,-18.2188 C84.7474,-19.4063 83.5,-20.5 81.75,-21.5 C80,-22.5 77.3438,-23.6354 73.7813,-24.9063 C68.8021,-26.6875 65.2448,-28.7995 63.1094,-31.2422 C60.974,-33.6849 59.9063,-36.8698 59.9063,-40.7969 C59.9063,-44.9219 61.4557,-48.2057 64.5547,-50.6484 C67.6536,-53.0911 71.7552,-54.3125 76.8594,-54.3125 C82.1823,-54.3125 87.0781,-53.3333 91.5469,-51.375 L89.6094,-45.9531 C85.1927,-47.8177 80.8958,-48.75 76.7188,-48.75 C73.4167,-48.75 70.8385,-48.0417 68.9844,-46.625 C67.1302,-45.2083 66.2031,-43.2396 66.2031,-40.7188 C66.2031,-38.8646 66.5443,-37.3464 67.2266,-36.1641 C67.9089,-34.9818 69.0625,-33.8958 70.6875,-32.9063 C72.3125,-31.9167 74.7969,-30.8229 78.1406,-29.625 C83.7552,-27.625 87.6198,-25.4766 89.7344,-23.1797 C91.849,-20.8828 92.9063,-17.9063 92.9063,-14.25 M137.859,-12.3125 L129.922,-12.3125 L129.922,0 L124.094,0 L124.094,-12.3125 L98.0625,-12.3125 L98.0625,-17.6094 L123.469,-53.8281 L129.922,-53.8281 L129.922,-17.8281 L137.859,-17.8281 L137.859,-12.3125 M124.094,-17.8281 L124.094,-35.625 C124.094,-39.125 124.219,-43.0729 124.469,-47.4688 L124.172,-47.4688 C122.995,-45.125 121.896,-43.1823 120.875,-41.6406 L104.141,-17.8281 L124.094,-17.8281" vector-effect="none" fill-rule="nonzero"/>
  </g>
  <g transform="matrix(0.999913,0,0,0.999913,9.22066e-16,0)" font-size="41.6667" font-family="Ubuntu" stroke-linejoin="bevel" stroke-width="1" stroke="#000000" font-style="normal" stroke-opacity="1" font-weight="400" fill="none" stroke-linecap="square"/>
  <g transform="matrix(11.81,0,0,11.81,9.22066e-16,0)" font-size="41.6667" font-family="Ubuntu" stroke-linejoin="bevel" stroke-width="1" stroke="#000000" font-style="normal" stroke-opacity="1" font-weight="400" fill="none" stroke-linecap="square"/>
  <g transform="matrix(11.81,0,0,11.81,9.22066e-16,0)" font-size="41.6667" font-family="Ubuntu" stroke-linejoin="bevel" stroke-width="1" stroke="#000000" font-style="normal" stroke-opacity="1" font-weight="400" fill="none" stroke-linecap="square"/>
  <g transform="matrix(11.81,0,0,11.81,9.22066e-16,0)" font-size="41.6667" font-family="Ubuntu" stroke-linejoin="bevel" stroke-width="1" stroke="#000000" font-style="normal" stroke-opacity="1" font-weight="400" fill="none" stroke-linecap="square"/>
  <g transform="matrix(1,0,0,1,0,0)" font-size="41.6667" font-family="Ubuntu" stroke-linejoin="bevel" stroke-width="1" stroke="#000000" font-style="normal" stroke-opacity="1" font-weight="400" fill="none" stroke-linecap="square"/>
  <g transform="matrix(11.81,0,0,11.81,9.22066e-16,0)" font-size="41.6667" font-family="Ubuntu" stroke-linejoin="bevel" stroke-width="1" stroke="#000000" font-style="normal" stroke-opacity="1" font-weight="400" fill="none" stroke-linecap="square"/>
  <g transform="matrix(11.81,0,0,11.81,9.22066e-16,0)" font-size="41.6667" font-family="Ubuntu" stroke-linejoin="bevel" stroke-width="1" stroke="#000000" font-style="normal" stroke-opacity="1" font-weight="400" fill="none" stroke-linecap="square"/>
  <g transform="matrix(11.81,0,0,11.81,0,0)" font-size="41.6667" font-family="Ubuntu" stroke-linejoin="bevel" stroke-width="1" stroke="#000000" font-style="normal" stroke-opacity="1" font-weight="400" fill="none" stroke-linecap="square"/>
  <g transform="matrix(11.81,0,0,11.81,0,0)" font-size="41.6667" font-family="Ubuntu" stroke-linejoin="bevel" stroke-width="1" stroke="#000000" font-style="normal" stroke-opacity="1" font-weight="400" fill="none" stroke-linecap="square"/>
  <g transform="matrix(1,0,0,1,0,0)" font-size="41.6667" font-family="Ubuntu" stroke-linejoin="bevel" stroke-width="1" stroke="#000000" font-style="normal" stroke-opacity="1" font-weight="400" fill="none" stroke-linecap="square"/>
 </g>
 <metadata>
  <rdf:RDF xmlns:rdfs="http://www.w3.org/2000/01/rdf-schema#" xmlns:dc="http://purl.org/dc/elements/1.1/" xmlns:rdf="http://www.w3.org/1999/02/22-rdf-syntax-ns#">
   <rdf:Description dc:identifier="" dc:description="" dc:title="" dc:date="2026-03-07T00:21:27" dc:format="image/svg+xml">
    <dc:creator>
     <rdf:Bag>
      <rdf:li>gislars</rdf:li>
     </rdf:Bag>
    </dc:creator>
    <dc:publisher>
     <rdf:Bag>
      <rdf:li>QGIS 3.40.15-Bratislava</rdf:li>
     </rdf:Bag>
    </dc:publisher>
    <dc:subject>
     <rdf:Bag/>
    </dc:subject>
   </rdf:Description>
   <cc:Work rdf:about="">
    <dc:format>image/svg+xml</dc:format>
    <dc:title></dc:title>
    <dc:date>2026-03-07T00:21:27</dc:date>
    <dc:identifier></dc:identifier>
    <dc:description></dc:description>
    <dc:creator>
     <cc:Agent>
      <dc:title>gislars</dc:title>
     </cc:Agent>
    </dc:creator>
    <dc:publisher>
     <cc:Agent>
      <dc:title>QGIS 3.40.15-Bratislava</dc:title>
     </cc:Agent>
    </dc:publisher>
   </cc:Work>
  </rdf:RDF>
 </metadata>
</svg>
